<?xml version="1.0" encoding="UTF-8" standalone="no"?>
<svg
   width="120"
   height="120"
   viewBox="0 0 120 120"
   fill="none"
   version="1.1"
   id="svg28"
   sodipodi:docname="logo-square-color.svg"
   inkscape:version="1.2.2 (732a01da63, 2022-12-09)"
   xmlns:inkscape="http://www.inkscape.org/namespaces/inkscape"
   xmlns:sodipodi="http://sodipodi.sourceforge.net/DTD/sodipodi-0.dtd"
   xmlns="http://www.w3.org/2000/svg"
   xmlns:svg="http://www.w3.org/2000/svg">
  <defs
     id="defs32" />
  <sodipodi:namedview
     id="namedview30"
     pagecolor="#ffffff"
     bordercolor="#000000"
     borderopacity="0.25"
     inkscape:showpageshadow="2"
     inkscape:pageopacity="0.0"
     inkscape:pagecheckerboard="0"
     inkscape:deskcolor="#d1d1d1"
     showgrid="false"
     inkscape:zoom="5.0416667"
     inkscape:cx="120"
     inkscape:cy="60.099174"
     inkscape:window-width="2560"
     inkscape:window-height="1377"
     inkscape:window-x="1912"
     inkscape:window-y="-8"
     inkscape:window-maximized="1"
     inkscape:current-layer="svg28" />
  <path
     d="M 57,11 H 11 v 11 l 33,33 h -4 l 2,2 h 13 v 6 l 1,1 h 1 z"
     fill="#c87e7e"
     class="svg-logo svg-logo-color svg-logo-red"
     id="path4" />
  <path
     d="m 22,60 h 3 L 11,46 v 11 h 8 z"
     fill="#c87e7e"
     class="svg-logo svg-logo-color svg-logo-red"
     id="path6" />
  <path
     d="m 8,27 28,28 h 4 l 2,2 h -9 l 6,6 h 16 l 1,1 -1,1 h -9 l 47,47 H 85 L 65,92 v 4 l -2,-2 v -9 l -6,-6 v 9 L 55,86 V 82 L 8,35 Z"
     fill="#c8a87e"
     class="svg-logo svg-logo-color svg-logo-tan"
     id="path8" />
  <path
     d="m 65,60 h -2 c 0,80.364 0,5.6667 0,10 l -6,-6 h -1 l -1,1 44,44 h 10 V 63 H 65 Z"
     fill="#8fbd8f"
     class="svg-logo svg-logo-color svg-logo-green"
     id="path10" />
  <path
     d="m 65,96 -2,-2 v 15 h 11 l -9,-9 z"
     fill="#8fbd8f"
     class="svg-logo svg-logo-color svg-logo-green"
     id="path12" />
  <path
     d="M 5,5 H 63 V 70 L 57,64 V 11 H 11 V 22 L 44,55 H 36 L 5,24 Z"
     fill="#425262"
     class="svg-logo svg-logo-base"
     id="path14" />
  <path
     d="M 5,63 H 25 L 19,57 H 11 V 46 L 55,90 V 82 L 5,32 Z"
     fill="#425262"
     class="svg-logo svg-logo-base"
     id="path16" />
  <path
     d="M 55,57 H 33 l 6,6 h 16 z"
     fill="#425262"
     class="svg-logo svg-logo-base"
     id="path18" />
  <path
     d="m 65,57 h 50 v 58 H 96 L 46,65 h 9 l 44,44 h 10 V 63 H 65 Z"
     fill="#425262"
     class="svg-logo svg-logo-base"
     id="path20" />
  <path
     d="m 63,85 v 24 h 11 l -9,-9 v -8 l 23,23 H 57 V 79 Z"
     fill="#425262"
     class="svg-logo svg-logo-base"
     id="path22" />
</svg>
