<svg width="240" height="120" viewBox="0 0 240 120" fill="none"
    xmlns="http://www.w3.org/2000/svg">
    <path d="M5 5H63V70L57 64V11H11V22L44 55H36L5 24V5Z" fill="white" class="svg-logo svg-logo-base"/>
    <path d="M5 63H25L19 57H11V46L55 90V82L5 32V63Z" fill="white" class="svg-logo svg-logo-base"/>
    <path d="M55 57H33L39 63H55V57Z" fill="white" class="svg-logo svg-logo-base"/>
    <path d="M65 57H115V115H96L46 65H55L99 109H109V63H65V57Z" fill="white" class="svg-logo svg-logo-base"/>
    <path d="M63 85V109H74L65 100V92L88 115H57V79L63 85Z" fill="white" class="svg-logo svg-logo-base"/>
    <path d="M67.88 52V10H85.4C88.08 10 90.34 10.4 92.18 11.2C94.02 12 95.4 13.2 96.32 14.8C97.28 16.36 97.76 18.28 97.76 20.56C97.76 22.84 97.12 24.78 95.84 26.38C94.6 27.98 92.86 29.08 90.62 29.68V28.48C92.5 28.88 94.14 29.6 95.54 30.64C96.94 31.64 98.02 32.9 98.78 34.42C99.58 35.94 99.98 37.68 99.98 39.64C99.98 41.64 99.66 43.42 99.02 44.98C98.42 46.5 97.5 47.78 96.26 48.82C95.06 49.86 93.6 50.66 91.88 51.22C90.16 51.74 88.2 52 86 52H67.88ZM74.36 45.76H85.64C87.28 45.76 88.66 45.52 89.78 45.04C90.94 44.56 91.82 43.86 92.42 42.94C93.06 41.98 93.38 40.84 93.38 39.52C93.38 38.28 93.04 37.22 92.36 36.34C91.72 35.46 90.8 34.8 89.6 34.36C88.4 33.88 86.98 33.64 85.34 33.64H74.36V45.76ZM74.36 27.4H85.04C86.24 27.4 87.3 27.16 88.22 26.68C89.18 26.2 89.92 25.54 90.44 24.7C91 23.86 91.28 22.9 91.28 21.82C91.28 20.02 90.68 18.64 89.48 17.68C88.28 16.72 86.56 16.24 84.32 16.24H74.36V27.4ZM107.16 52V20.5H113.4V30.4L112.8 28C113.24 26.48 113.98 25.1 115.02 23.86C116.1 22.62 117.32 21.64 118.68 20.92C120.08 20.2 121.52 19.84 123 19.84C123.68 19.84 124.32 19.9 124.92 20.02C125.56 20.14 126.06 20.28 126.42 20.44L124.8 27.16C124.32 26.96 123.78 26.8 123.18 26.68C122.62 26.52 122.06 26.44 121.5 26.44C120.42 26.44 119.38 26.66 118.38 27.1C117.42 27.5 116.56 28.08 115.8 28.84C115.08 29.56 114.5 30.42 114.06 31.42C113.62 32.38 113.4 33.44 113.4 34.6V52H107.16ZM136.639 65.8L142.999 51.1L143.059 56.02L127.339 20.5H134.539L144.379 43.66C144.579 44.06 144.819 44.68 145.099 45.52C145.379 46.32 145.619 47.12 145.819 47.92L144.259 48.28C144.579 47.44 144.879 46.6 145.159 45.76C145.479 44.92 145.779 44.08 146.059 43.24L154.279 20.5H161.599L148.639 52L143.299 65.8H136.639ZM179.016 52.6C176.096 52.6 173.476 51.88 171.156 50.44C168.876 49 167.056 47.04 165.696 44.56C164.376 42.08 163.716 39.3 163.716 36.22C163.716 33.14 164.376 30.36 165.696 27.88C167.056 25.4 168.876 23.44 171.156 22C173.476 20.56 176.096 19.84 179.016 19.84C181.816 19.84 184.356 20.42 186.636 21.58C188.956 22.7 190.716 24.24 191.916 26.2L188.496 30.4C187.856 29.48 187.036 28.64 186.036 27.88C185.036 27.12 183.976 26.52 182.856 26.08C181.736 25.64 180.656 25.42 179.616 25.42C177.696 25.42 175.976 25.9 174.456 26.86C172.976 27.78 171.796 29.06 170.916 30.7C170.036 32.34 169.596 34.18 169.596 36.22C169.596 38.26 170.056 40.1 170.976 41.74C171.896 43.34 173.116 44.62 174.636 45.58C176.156 46.54 177.836 47.02 179.676 47.02C180.756 47.02 181.796 46.84 182.796 46.48C183.836 46.12 184.836 45.58 185.796 44.86C186.756 44.14 187.656 43.26 188.496 42.22L191.916 46.42C190.636 48.22 188.796 49.7 186.396 50.86C184.036 52.02 181.576 52.6 179.016 52.6ZM212.446 52.6C209.206 52.6 206.326 51.92 203.806 50.56C201.326 49.16 199.366 47.26 197.926 44.86C196.526 42.46 195.826 39.7 195.826 36.58C195.826 34.1 196.226 31.84 197.026 29.8C197.826 27.76 198.926 26 200.326 24.52C201.766 23 203.466 21.84 205.426 21.04C207.426 20.2 209.586 19.78 211.906 19.78C213.946 19.78 215.846 20.18 217.606 20.98C219.366 21.74 220.886 22.8 222.166 24.16C223.486 25.52 224.486 27.14 225.166 29.02C225.886 30.86 226.226 32.88 226.186 35.08L226.126 37.72H200.386L199.006 32.8H220.786L219.886 33.82V32.38C219.766 31.06 219.326 29.88 218.566 28.84C217.806 27.8 216.846 26.98 215.686 26.38C214.526 25.78 213.266 25.48 211.906 25.48C209.746 25.48 207.926 25.9 206.446 26.74C204.966 27.54 203.846 28.74 203.086 30.34C202.326 31.9 201.946 33.84 201.946 36.16C201.946 38.36 202.406 40.28 203.326 41.92C204.246 43.52 205.546 44.76 207.226 45.64C208.906 46.52 210.846 46.96 213.046 46.96C214.606 46.96 216.046 46.7 217.366 46.18C218.726 45.66 220.186 44.72 221.746 43.36L224.866 47.74C223.906 48.7 222.726 49.54 221.326 50.26C219.966 50.98 218.506 51.56 216.946 52C215.426 52.4 213.926 52.6 212.446 52.6Z" fill="white" class="svg-logo svg-logo-text"/>
    <path d="M122.58 91.58L122.37 87.345L135.215 74.5H140.185L122.58 91.58ZM119.43 99V74.5H123.21V99H119.43ZM135.67 99L126.29 86.47L129.09 84.055L140.395 99H135.67ZM143.881 99V80.625H147.486V84.405L146.856 84.825C147.09 84.0083 147.545 83.2617 148.221 82.585C148.898 81.885 149.703 81.325 150.636 80.905C151.57 80.4617 152.526 80.24 153.506 80.24C154.906 80.24 156.073 80.52 157.006 81.08C157.94 81.6167 158.64 82.445 159.106 83.565C159.573 84.685 159.806 86.0967 159.806 87.8V99H156.201V88.045C156.201 86.995 156.061 86.1317 155.781 85.455C155.501 84.755 155.07 84.2533 154.486 83.95C153.903 83.6233 153.18 83.4833 152.316 83.53C151.616 83.53 150.975 83.6467 150.391 83.88C149.808 84.09 149.295 84.3933 148.851 84.79C148.431 85.1867 148.093 85.6533 147.836 86.19C147.603 86.7033 147.486 87.2633 147.486 87.87V99H145.701C145.398 99 145.095 99 144.791 99C144.488 99 144.185 99 143.881 99ZM165.292 99V80.625H168.897V99H165.292ZM167.042 76.565C166.272 76.565 165.677 76.3667 165.257 75.97C164.837 75.5733 164.627 75.0133 164.627 74.29C164.627 73.6133 164.837 73.065 165.257 72.645C165.7 72.225 166.295 72.015 167.042 72.015C167.812 72.015 168.407 72.2133 168.827 72.61C169.247 73.0067 169.457 73.5667 169.457 74.29C169.457 74.9667 169.235 75.515 168.792 75.935C168.372 76.355 167.788 76.565 167.042 76.565ZM182.663 107.05C181.356 107.05 180.05 106.84 178.743 106.42C177.46 106.023 176.421 105.498 175.628 104.845L176.958 102.045C177.425 102.395 177.973 102.698 178.603 102.955C179.233 103.235 179.898 103.445 180.598 103.585C181.298 103.748 181.986 103.83 182.663 103.83C183.946 103.83 185.02 103.62 185.883 103.2C186.746 102.78 187.4 102.162 187.843 101.345C188.286 100.528 188.508 99.5133 188.508 98.3V94.765L188.893 95.01C188.776 95.7333 188.391 96.4333 187.738 97.11C187.108 97.7633 186.315 98.3 185.358 98.72C184.401 99.14 183.421 99.35 182.418 99.35C180.668 99.35 179.105 98.9417 177.728 98.125C176.375 97.285 175.301 96.1533 174.508 94.73C173.715 93.2833 173.318 91.6383 173.318 89.795C173.318 87.9517 173.703 86.3183 174.473 84.895C175.266 83.4483 176.34 82.3167 177.693 81.5C179.07 80.66 180.61 80.24 182.313 80.24C183.013 80.24 183.69 80.3333 184.343 80.52C184.996 80.6833 185.603 80.9283 186.163 81.255C186.723 81.5583 187.225 81.8967 187.668 82.27C188.111 82.6433 188.473 83.04 188.753 83.46C189.033 83.88 189.208 84.2767 189.278 84.65L188.508 84.93V80.625H192.113V97.88C192.113 99.35 191.891 100.645 191.448 101.765C191.028 102.908 190.41 103.865 189.593 104.635C188.776 105.428 187.785 106.023 186.618 106.42C185.451 106.84 184.133 107.05 182.663 107.05ZM182.803 96.025C183.946 96.025 184.961 95.7567 185.848 95.22C186.735 94.6833 187.423 93.9483 187.913 93.015C188.403 92.0817 188.648 91.0083 188.648 89.795C188.648 88.5817 188.391 87.5083 187.878 86.575C187.388 85.6183 186.7 84.8717 185.813 84.335C184.95 83.7983 183.946 83.53 182.803 83.53C181.683 83.53 180.68 83.81 179.793 84.37C178.93 84.9067 178.241 85.6533 177.728 86.61C177.238 87.5433 176.993 88.605 176.993 89.795C176.993 90.985 177.238 92.0583 177.728 93.015C178.241 93.9483 178.93 94.6833 179.793 95.22C180.68 95.7567 181.683 96.025 182.803 96.025ZM197.167 99V73.1H200.772V84.405L200.142 84.825C200.376 84.0083 200.831 83.2617 201.507 82.585C202.184 81.885 202.989 81.325 203.922 80.905C204.856 80.4617 205.812 80.24 206.792 80.24C208.192 80.24 209.359 80.52 210.292 81.08C211.226 81.6167 211.926 82.445 212.392 83.565C212.859 84.685 213.092 86.0967 213.092 87.8V99H209.487V88.045C209.487 86.995 209.347 86.1317 209.067 85.455C208.787 84.755 208.356 84.2533 207.772 83.95C207.189 83.6233 206.466 83.4833 205.602 83.53C204.902 83.53 204.261 83.6467 203.677 83.88C203.094 84.09 202.581 84.3933 202.137 84.79C201.717 85.1867 201.379 85.6533 201.122 86.19C200.889 86.7033 200.772 87.2633 200.772 87.87V99H198.987C198.684 99 198.381 99 198.077 99C197.774 99 197.471 99 197.167 99ZM220.258 99V75.935H223.863V99H220.258ZM216.443 84.125V80.625H228.133V84.125H216.443Z" fill="white" class="svg-logo svg-logo-text"/>
</svg>
