<?xml version="1.0" encoding="UTF-8" standalone="no"?>
<svg width="320" height="20" viewBox="0 0 320 20" version="1.1" xmlns="http://www.w3.org/2000/svg" xmlns:svg="http://www.w3.org/2000/svg">
    <rect class="svg-divider-top" width="320" height="20" fill="white"/>
    <path class="svg-divider-bottom"
      d="M 160,20 H 0 V 16.5 13 h 6 6 V 12.5 12 h 3 3 V 10 8 H 18.5 19 V 10.5 13 H 16.5 14 v 0.5 0.5 h 3 3 V 11 8 H 20.5 21 V 11.5 15 H 18.5 16 v 0.5 0.5 h 3 3 V 12 8 H 22.5 23 V 12.5 17 H 20.5 18 v 0.5 0.5 h 3 3 V 11.5 5 H 24.5 25 V 8.5 12 H 25.5 26 V 8.5 5 H 26.5 27 V 7.5 10 H 30.5 34 V 8 6 H 34.5 35 V 8.5 11 H 35.5 36 V 10.5 10 h 1 1 v 0.5 0.5 h 3 3 v 0.5 0.5 h 0.5 0.5 v -1 -1 h 0.5 0.5 v 1 1 H 46.5 47 V 11 10 H 51.5 56 V 9 8 H 55.5 55 V 6.5 5 h 0.5 0.5 v 1 1 h 0.5 0.5 v 2 2 H 57.5 58 V 9.5 8 h 4 4 v 3 3 H 66.5 67 V 10.5 7 H 62.5 58 V 6 5 H 58.5 59 V 5.5 6 H 63.5 68 V 9.5 13 H 71.5 75 V 10 7 H 75.5 76 V 10.5 14 H 71.5 67 v 1 1 H 67.5 68 V 15.5 15 H 72.5 77 V 11 7 h 0.5 0.5 v 4 4 h 9 9 V 14.5 14 H 87.5 79 V 10.5 7 h 0.5 0.5 v 3 3 h 8 8 V 11 9 H 96.5 97 V 7.5 6 h 0.5 0.5 v 2 2 H 98.5 99 V 8.5 7 h 0.5 0.5 V 8.5 10 h 0.5 0.5 V 9.5 9 h 0.5 0.5 v 1 1 h 0.5 0.5 V 10 9 h 0.5 0.5 v 2 2 h 3.5 3.5 V 10 7 H 107.5 104 V 6.5 6 h 4 4 v 4.5 4.5 h 0.5 0.5 V 10.5 6 h 0.5 0.5 v 5 5 h 0.5 0.5 V 11 6 h 0.5 0.5 v 5 5 h 0.5 0.5 V 11 6 h 0.5 0.5 v 5 5 h 0.5 0.5 V 11 6 h 0.5 0.5 v 5 5 h 0.5 0.5 V 11 6 h 0.5 0.5 v 5 5 h 6.5 6.5 v -1 -1 h 4 4 v 1 1 h 0.5 0.5 V 14.5 13 h -5 -5 v 1 1 H 128.5 123 V 10.5 6 h 0.5 0.5 v 4 4 h 4.5 4.5 v -1 -1 h 6 6 V 10.5 9 H 144.5 144 V 5 1 h 0.5 0.5 V 4.5 8 h 0.5 0.5 v 2.5 2.5 h 0.5 0.5 V 9.5 6 H 146.5 146 V 3.5 1 h 0.5 0.5 V 3.5 6 h 0.5 0.5 V 9.5 13 h 0.5 0.5 V 8.5 4 H 148.5 148 V 2.5 1 h 0.5 0.5 V 2.5 4 h 0.5 0.5 V 8.5 13 h 1 1 v 0.5 0.5 h -0.5 -0.5 v 2 2 h 0.5 0.5 V 16.5 15 h 0.5 0.5 V 13.5 12 h -1 -1 V 8 4 h 1.5 1.5 V 4.5 5 h -1 -1 v 3 3 h 1 1 v 2.5 2.5 h 0.5 0.5 v -3 -3 h -1 -1 V 8 6 h 1.5 1.5 V 6.5 7 h -1 -1 v 1 1 h 1 1 v 4 4 h 7.5 7.5 V 16.5 16 h -7 -7 V 12.5 9 h 0.5 0.5 v 3 3 h 5.5 5.5 v -1 -1 h 1.5 1.5 V 11 9 H 170.5 169 V 7 5 h 0.5 0.5 V 6.5 8 h 1.5 1.5 v 3 3 h -1.5 -1.5 v 0.5 0.5 h 2 2 V 11 7 H 172.5 171 V 6 5 h 0.5 0.5 V 5.5 6 h 1 1 V 6.5 7 h 0.5 0.5 v 4.5 4.5 h -1 -1 v 0.5 0.5 h 1.5 1.5 V 12 7 h 0.5 0.5 v 5 5 h 0.5 0.5 V 13.5 10 h 3.5 3.5 v 3.5 3.5 h 3.5 3.5 V 16.5 16 h -3 -3 V 13.5 11 h 2.5 2.5 v 0.5 0.5 h 0.5 0.5 v -1 -1 h 3 3 V 9.5 9 h 3 3 v 1.5 1.5 h 3 3 V 9 6 H 208.5 207 V 4 2 h 0.5 0.5 V 3.5 5 h 1.5 1.5 v 4 4 h -2 -2 v 0.5 0.5 h 2.5 2.5 V 9 4 h 0.5 0.5 v 5 5 h 0.5 0.5 V 10 6 h 0.5 0.5 v 4 4 h 0.5 0.5 V 11.5 9 h 0.5 0.5 v 4.5 4.5 h 0.5 0.5 V 13.5 9 h 2.5 2.5 V 6.5 4 h 0.5 0.5 v 3 3 h -2.5 -2.5 v 4.5 4.5 h 0.5 0.5 v -4 -4 h 9 9 v 2.5 2.5 h 0.5 0.5 V 13 10 H 250.5 262 V 7 4 h 7 7 V 4.5 5 h -6 -6 v 4 4 h 0.5 0.5 V 9.5 6 h 4.5 4.5 V 6.5 7 h -4 -4 v 3 3 h 0.5 0.5 V 10.5 8 h 2.5 2.5 V 8.5 9 h 0.5 0.5 v 2.5 2.5 h 0.5 0.5 V 11.5 9 h 0.5 0.5 v 3.5 3.5 h 0.5 0.5 V 12.5 9 h 0.5 0.5 v 2.5 2.5 h 0.5 0.5 V 11.5 9 h 0.5 0.5 v 2 2 h 0.5 0.5 V 11 9 h 0.5 0.5 v 2 2 h 1 1 V 10 7 h 0.5 0.5 v 3.5 3.5 h -2 -2 v 0.5 0.5 h 2.5 2.5 V 11 7 h 0.5 0.5 v 4.5 4.5 h -4.5 -4.5 v 0.5 0.5 h 5 5 V 12 7 h 0.5 0.5 v 4.5 4.5 h 3.5 3.5 V 15.5 15 h -3 -3 V 11 7 h 0.5 0.5 v 3.5 3.5 h 3.5 3.5 V 13.5 13 h -3 -3 V 10 7 h 0.5 0.5 V 9.5 12 h 3.5 3.5 V 11.5 11 h -3 -3 V 9 7 h 0.5 0.5 V 8.5 10 h 3.5 3.5 v 0.5 0.5 h 7 7 V 7 3 h 0.5 0.5 V 7.5 12 h -8.5 -8.5 v 0.5 0.5 h 1 1 v 0.5 0.5 h 9.5 9.5 v 0.5 0.5 h -8.5 -8.5 v 0.5 0.5 h 8.5 8.5 v 2 2 z M 25.5,18 H 26 V 16 14 H 25.5 25 v 2 2 z m 6,0 H 32 V 16 14 H 31.5 31 v 2 2 z m 15,0 H 48 V 17.5 17 H 46.5 45 v 0.5 0.5 z m 9.5,0 h 2 V 17.5 17 h -2 -2 v 0.5 0.5 z m 83,0 h 1 V 17.5 17 h -1 -1 v 0.5 0.5 z m 8.5,0 H 148 V 17.5 17 h -0.5 -0.5 v 0.5 0.5 z m 2,0 h 0.5 v -2 -2 h -1 -1 v 0.5 0.5 h 0.5 0.5 v 1.5 1.5 z m 4,0 h 0.5 v -1 -1 h -0.5 -0.5 v 1 1 z m 30,0 H 184 V 14.5 11 h -2.5 -2.5 v 3 3 h 0.5 0.5 V 14.5 12 h 1.5 1.5 v 3 3 z m 38,0 H 222 V 15.5 13 h 7 7 v 1.5 1.5 h 0.5 0.5 v -2 -2 h -8 -8 v 3 3 z m 2,0 H 224 V 16.5 15 h 5 5 v 0.5 0.5 h 0.5 0.5 v -1 -1 h -6 -6 v 2 2 z m 2,0 H 226 V 17.5 17 h 3.5 3.5 V 16.5 16 h -4 -4 v 1 1 z M 1.5,17 H 2 V 16.5 16 H 1.5 1 v 0.5 0.5 z m 26,0 H 28 V 16.5 16 H 27.5 27 v 0.5 0.5 z m 2,0 H 30 V 16.5 16 H 29.5 29 V 16.5 17 Z M 75,17 h 6 V 16.5 16 h -6 -6 v 0.5 0.5 z m 13.5,0 H 94 V 16.5 16 H 88.5 83 v 0.5 0.5 z m 48,0 H 137 V 16.5 16 h 2.5 2.5 V 15.5 15 h -3 -3 v 1 1 z m 45,0 H 182 V 15.5 14 h -0.5 -0.5 v 1.5 1.5 z m 15,0 H 197 V 14.5 12 h 2.5 2.5 V 11.5 11 h 0.5 0.5 V 10.5 10 h -1.5 -1.5 v 0.5 0.5 h -3.5 -3.5 v 0.5 0.5 h 1.5 1.5 v 2.5 2.5 z m 2,0 H 199 V 15.5 14 h 3 3 V 13.5 13 h -3.5 -3.5 v 2 2 z m 2,0 H 201 V 16.5 16 h 1 1 V 15.5 15 h -1.5 -1.5 v 1 1 z m 45,0 H 246 V 16.5 16 h -0.5 -0.5 v 0.5 0.5 z m 50.5,0 h 1 V 16.5 16 h -1 -1 V 16.5 17 Z M 33.5,16 H 34 V 14 12 H 33.5 33 v 2 2 z M 56,16 h 4 V 15.5 15 h -4 -4 v 0.5 0.5 z m 184.5,0 h 0.5 v -2 -2 h -0.5 -0.5 v 2 2 z m 2,0 h 0.5 v -1 -1 h -0.5 -0.5 v 1 1 z M 63.5,15 H 65 V 12 9 h -3 -3 v 1 1 H 59.5 60 V 10.5 10 h 2 2 v 2 2 h -1 -1 v 0.5 0.5 z m 39,0 H 103 V 14.5 14 h -0.5 -0.5 v 0.5 0.5 z m 86,0 H 190 V 14.5 14 h -1 -1 V 13.5 13 h 1 1 V 12.5 12 H 188.5 187 V 13.5 15 Z M 298,15 h 1 V 14.5 14 h -1 -1 V 14.5 15 Z M 36,14 h 1 v -1 -1 h -1 -1 v 1 1 z m 12.5,0 H 49 v -1 -1 h 4 4 V 11.5 11 H 52.5 48 v 1.5 1.5 z m 6,0 H 59 V 13.5 13 H 54.5 50 v 0.5 0.5 z m -13,-1 H 43 V 12.5 12 H 41.5 40 V 12.5 13 Z M 62,13 h 1 V 12 11 H 62.5 62 V 11.5 12 H 61.5 61 v 0.5 0.5 z m 200.5,0 H 263 V 12.5 12 h -0.5 -0.5 v 0.5 0.5 z m 7.5,0 h 2 V 11 9 h -2 -2 v 2 2 z m 0,-1 h -1 v -1 -1 h 1 1 v 1 1 z M 163.5,14 H 159 V 11 8 h 0.5 0.5 v 2.5 2.5 h 3.5 3.5 V 9.5 6 h 0.5 0.5 v 4 4 z m -35,-1 H 125 V 10.5 8 h 1.5 1.5 V 5.5 3 h 7.5 7.5 V 6.5 10 h 0.5 0.5 v 0.5 0.5 h -6 -6 v 1 1 z m 0,-1 h 2.5 v -1 -1 h 5.5 5.5 V 7 4 H 135.5 129 V 6.5 9 h -1.5 -1.5 v 1.5 1.5 z m 0,-1 H 127 V 10.5 10 h 1.5 1.5 v 0.5 0.5 z m 7,-2 H 130 V 7 5 h 5.5 5.5 v 2 2 z m 0,-1 H 140 V 7 6 h -4.5 -4.5 v 1 1 z m 183,5 H 317 V 8.5 4 h 0.5 0.5 v 4 4 h 1 1 V 12.5 13 Z M 2,12 H 0 V 11.5 11 H 1.5 3 V 8.5 6 H 3.5 4 v 3 3 z m 69.5,0 H 69 V 8.5 5 H 64.5 60 V 4 3 H 60.5 61 V 3.5 4 H 65.5 70 V 7.5 11 H 71.5 73 V 9 7 H 73.5 74 V 9.5 12 Z M 88,12 H 81 V 9.5 7 h 0.5 0.5 v 2 2 h 6 6 V 10 9 h 0.5 0.5 v 1.5 1.5 z m 19.5,0 H 105 V 10.5 9 h 0.5 0.5 V 8.5 8 h 2 2 v 2 2 z m 0,-1 H 109 V 10 9 h -1.5 -1.5 v 1 1 z m 56,1 H 161 V 10 8 h 0.5 0.5 V 7.5 7 h 2 2 V 9.5 12 Z m 0,-1 H 165 V 9.5 8 H 163.5 162 V 9.5 11 Z m 0,-1 H 163 V 9.5 9 h 0.5 0.5 V 9.5 10 Z m 6.5,2 h -1 v -1 -1 h 1 1 v 1 1 z M 11,11 H 5 V 8.5 6 H 5.5 6 v 2 2 h 5 5 V 9 8 H 16.5 17 V 9.5 11 Z m 196,0 h -2 V 9.5 8 h -4 -4 V 8.5 9 H 187.5 178 V 7 5 h 0.5 0.5 V 6.5 8 h 8.5 8.5 V 7.5 7 h 4.5 4.5 V 3.5 0 h 0.5 0.5 V 3.5 7 h 1.5 1.5 v 2 2 z m 0,-1 h 1 V 9 8 h -1 -1 v 1 1 z m 112.5,1 H 319 V 8.5 6 h 0.5 0.5 V 8.5 11 Z M 1,10 H 0 V 9.5 9 H 0.5 1 V 8 7 H 0.5 0 V 6.5 6 h 1 1 v 2 2 z m 70.5,0 H 71 V 7.5 5 H 71.5 72 V 7.5 10 Z M 88,10 H 83 V 8.5 7 H 83.5 84 V 8 9 H 88.5 93 V 9.5 10 Z m 220,0 h -6 V 9 8 h 0.5 0.5 V 8.5 9 h 5 5 V 6 3 h 0.5 0.5 V 6.5 10 Z M 30.5,9 H 28 V 7 5 h 2 2 V 5.5 6 H 32.5 33 V 7.5 9 Z m 0,-1 H 32 V 7 6 H 30.5 29 V 7 8 Z M 45,9 H 36 V 7.5 6 H 36.5 37 V 5 4 H 37.5 38 V 5.5 7 H 37.5 37 V 7.5 8 h 8 8 V 6.5 5 H 53.5 54 V 7 9 Z M 243,9 H 225 V 4.5 0 h 0.5 0.5 v 4 4 h 17 17 V 6 4 h 0.5 0.5 V 6.5 9 Z M 7.5,8 H 7 V 7 6 H 7.5 8 v 1 1 z m 80,0 H 85 V 7.5 7 H 87.5 90 V 7.5 8 Z m 134,0 H 221 V 7 6 h 0.5 0.5 v 1 1 z m 74,0 H 295 V 7.5 7 h 0.5 0.5 V 7.5 8 Z M 51.5,7 H 51 V 6 5 h 0.5 0.5 v 1 1 z m 136,0 H 180 V 6 5 h 0.5 0.5 V 5.5 6 h 6.5 6.5 V 5.5 5 h 4.5 4.5 V 2.5 0 h 0.5 0.5 V 3 6 H 199.5 195 V 6.5 7 Z M 252,7 h -7 V 6.5 6 h 6.5 6.5 V 5 4 h 0.5 0.5 V 5.5 7 Z m 52.5,0 H 304 V 6.5 6 h 0.5 0.5 V 6.5 7 Z m 7,0 H 311 V 5 3 h 0.5 0.5 V 5 7 Z M 126.5,6 H 126 V 5 4 h 0.5 0.5 v 1 1 z m 101,0 H 227 V 3 0 h 0.5 0.5 v 3 3 z m 14,0 H 241 V 3 0 h 0.5 0.5 V 3 6 Z M 0.5,5 H 0 V 4 3 H 0.5 1 v 1 1 z m 39,0 H 39 V 4.5 4 H 39.5 40 V 4.5 5 Z m 68,0 H 102 V 4.5 4 h 5.5 5.5 V 4.5 5 Z M 188,5 h -5 V 4.5 4 h 4.5 4.5 V 3.5 3 h 4.5 4.5 V 1.5 0 h 0.5 0.5 V 2 4 H 197.5 193 V 4.5 5 Z m 64,0 h -5 V 4.5 4 h 5 5 V 4.5 5 Z m 54.5,0 H 306 V 4.5 4 h 0.5 0.5 V 4.5 5 Z m 3,0 H 309 V 4 3 h 0.5 0.5 V 4 5 Z M 30.5,4 H 27 V 3.5 3 H 30.5 34 V 3.5 4 Z M 88,4 H 86 V 3.5 3 h 2 2 V 3.5 4 Z M 229.5,4 H 229 V 2 0 h 0.5 0.5 v 2 2 z m 10,0 H 239 V 2 0 h 0.5 0.5 V 2 4 Z M 24.5,3 H 24 V 2.5 2 H 24.5 25 V 2.5 3 Z M 68,3 H 65 V 2.5 2 h 3 3 V 2.5 3 Z m 39.5,0 H 100 V 2.5 2 h 7.5 7.5 V 2.5 3 Z M 188,3 h -3 V 2.5 2 h 2.5 2.5 V 1 0 h 0.5 0.5 V 1.5 3 Z m 63.5,0 H 249 V 2.5 2 h 2.5 2.5 V 2.5 3 Z M 271,3 h -7 V 2.5 2 h 7 7 V 2.5 3 Z M 35.5,2 H 35 V 1.5 1 H 35.5 36 V 1.5 2 Z m 19,0 H 54 V 1.5 1 H 54.5 55 V 1.5 2 Z M 88,2 H 84 V 1.5 1 h 4 4 V 1.5 2 Z m 45,0 h -7 V 1.5 1 h 7 7 V 1.5 2 Z m 98.5,0 H 231 V 1 0 h 0.5 0.5 v 1 1 z m 6,0 H 237 V 1 0 h 0.5 0.5 v 1 1 z m -38,-1 H 199 V 0.5 0 h 0.5 0.5 V 0.5 1 Z"
    />
</svg>
