<?xml version="1.0" encoding="UTF-8" standalone="no"?>
<svg width="320" height="20" viewBox="0 0 320 20" version="1.1" xmlns="http://www.w3.org/2000/svg" xmlns:svg="http://www.w3.org/2000/svg">
    <rect class="svg-divider-top" width="320" height="20" fill="white"/>
    <path class="svg-divider-bottom"
      d="M 160,20 H 0 v -4 -4 h 5 5 V 11.5 11 H 5 0 V 10.5 10 H 5.5 11 V 10.5 11 H 11.5 12 V 10 9 H 11.5 11 V 6.5 4 h 0.5 0.5 v 2 2 h 0.5 0.5 v 2 2 H 16.5 20 V 12.5 13 H 20.5 21 V 12 11 H 17.5 14 V 9 7 H 13.5 13 V 6.5 6 h 6 6 V 9.5 13 H 25.5 26 V 10 7 H 26.5 27 V 6.5 6 h 3 3 V 6.5 7 h -3 -3 v 5 5 H 27.5 28 V 12.5 8 h 7 7 v 1 1 H 42.5 43 V 8.5 7 h 5 5 V 8.5 10 h 0.5 0.5 v 1 1 h 5 5 v 2 2 H 64.5 65 V 13.5 11 H 60 55 V 10 9 H 54.5 54 V 8.5 8 H 54.5 55 V 7 6 H 45 35 V 5.5 5 H 45.5 56 V 7.5 10 H 68.5 81 V 10.5 11 H 73.5 66 V 13.5 16 H 66.5 67 V 14 12 H 74.5 82 V 8 4 H 82.5 83 V 8.5 13 H 81 79 V 13.5 14 H 81.5 84 V 9 4 H 84.5 85 V 3.5 3 h 5 5 V 3.5 4 H 90 85 V 8.5 13 H 85.5 86 V 9 5 h 5 5 V 4 3 H 96.5 97 V 4.5 6 H 92 87 V 9.5 13 H 87.5 88 V 10 7 h 5 5 V 5 3 h 0.5 0.5 v 2 2 h 4.5 4.5 V 6 5 h 0.5 0.5 V 6.5 8 h -3.5 -3.5 v 5 5 h 0.5 0.5 V 13.5 9 h 3.5 3.5 V 7 5 h 0.5 0.5 V 7.5 10 h -3.5 -3.5 v 4 4 h 0.5 0.5 V 14.5 11 h 3.5 3.5 V 8 5 h 0.5 0.5 v 4 4 h 0.5 0.5 V 9 5 h 0.5 0.5 v 5 5 h 0.5 0.5 V 10 5 h 2 2 V 2.5 0 h 0.5 0.5 v 3 3 h -2 -2 v 4.5 4.5 h 0.5 0.5 V 11 7 h 5 5 v 3.5 3.5 h 0.5 0.5 V 10 6 H 125.5 122 V 5.5 5 h 4 4 V 4 3 h 0.5 0.5 V 4.5 6 h 3.5 3.5 V 6.5 7 h -4 -4 v 4 4 h -2 -2 v 0.5 0.5 h 2.5 2.5 V 12 8 h 4.5 4.5 V 8.5 9 h -4 -4 v 3.5 3.5 h 0.5 0.5 v -3 -3 h 3.5 3.5 v 2.5 2.5 h 0.5 0.5 V 12 9 h 11 11 v 2 2 h 0.5 0.5 V 10.5 8 h 0.5 0.5 v 2.5 2.5 h 0.5 0.5 V 9.5 6 h 0.5 0.5 V 8.5 11 h 2.5 2.5 V 10.5 10 h -2 -2 V 8 6 h 0.5 0.5 V 7.5 9 h 2.5 2.5 V 9.5 10 h 0.5 0.5 V 9 8 H 172.5 170 V 6.5 5 h 0.5 0.5 v 1 1 h 1.5 1.5 V 5.5 4 H 172.5 171 V 3.5 3 H 157 143 V 2 1 h 0.5 0.5 V 1.5 2 H 157.5 171 V 2.5 3 h 2 2 V 4.5 6 h 0.5 0.5 v 2 2 h 0.5 0.5 V 9 8 h 0.5 0.5 v 1 1 h 0.5 0.5 V 9.5 9 h 0.5 0.5 v 1 1 h -1 -1 v 0.5 0.5 h 1.5 1.5 V 10 8 h 0.5 0.5 v 2.5 2.5 h -3 -3 v 0.5 0.5 h 3.5 3.5 V 10 6 h 0.5 0.5 v 4 4 h 0.5 0.5 V 9.5 5 h 0.5 0.5 V 8.5 12 h 0.5 0.5 V 10.5 9 h 4 4 V 7 5 h 0.5 0.5 V 7.5 10 h 0.5 0.5 V 7.5 5 h 8.5 8.5 V 8.5 12 h 0.5 0.5 V 8.5 5 h 4 4 V 6 7 H 222.5 222 V 8.5 10 h 0.5 0.5 V 9 8 h 0.5 0.5 V 6 4 H 217.5 211 V 3.5 3 h 6.5 6.5 V 2 1 h 0.5 0.5 v 4 4 h 9 9 V 8.5 8 h 0.5 0.5 v 1 1 h -9 -9 v 0.5 0.5 h -2 -2 v 0.5 0.5 h 2.5 2.5 V 11.5 11 h 9 9 v 1 1 h 0.5 0.5 V 9.5 6 h 0.5 0.5 V 9.5 13 h 0.5 0.5 V 10 7 h 4 4 v 4.5 4.5 h 0.5 0.5 V 11 6 h 0.5 0.5 v 5 5 h 0.5 0.5 V 11 6 h 0.5 0.5 v 4.5 4.5 h 0.5 0.5 V 11 7 h 0.5 0.5 v 5 5 h 0.5 0.5 V 12 7 h 0.5 0.5 V 6.5 6 h 5.5 5.5 v 2 2 h 2.5 2.5 v 2.5 2.5 h 0.5 0.5 V 12 9 h 4.5 4.5 V 8 7 h 0.5 0.5 V 8.5 10 h 0.5 0.5 V 9 8 h 2 2 v 1 1 h 0.5 0.5 V 8.5 7 h 0.5 0.5 v 1 1 h 1 1 V 9.5 10 h 1 1 v 2.5 2.5 h 6 6 V 11.5 8 H 312.5 311 V 4.5 1 h 0.5 0.5 v 3 3 h 1.5 1.5 v 4 4 h 0.5 0.5 V 10.5 6 H 314.5 313 V 3.5 1 h 0.5 0.5 v 2 2 h 1.5 1.5 v 5 5 h 0.5 0.5 V 10 5 h 0.5 0.5 V 9.5 14 h 0.5 0.5 v 3 3 z M 55,19 h 2 V 18.5 18 h -2 -2 v 0.5 0.5 z m 7.5,0 H 63 V 18.5 18 H 62.5 62 v 0.5 0.5 z m 20,0 H 83 V 17 15 H 82.5 82 v 2 2 z m 58,0 h 0.5 v -1 -1 h -4.5 -4.5 v 0.5 0.5 h 4 4 v 0.5 0.5 z m 2,0 h 0.5 v -4 -4 h 9 9 v 0.5 0.5 h 0.5 0.5 v -1 -1 h -10 -10 v 4.5 4.5 z m 2,0 h 0.5 v -3 -3 h 7.5 7.5 V 12.5 12 h -8 -8 v 3.5 3.5 z m 2,0 h 0.5 v -2 -2 h 5.5 5.5 V 14.5 14 h -6 -6 v 2.5 2.5 z m 2,0 h 0.5 v -1 -1 h 3.5 3.5 V 16.5 16 h -4 -4 v 1.5 1.5 z m 3.5,0 h 2 V 18.5 18 h -2 -2 v 0.5 0.5 z m 31.5,0 H 184 V 18.5 18 h -0.5 -0.5 v 0.5 0.5 z m 2,0 H 186 V 17.5 16 h -0.5 -0.5 v 1.5 1.5 z m 2,0 H 188 V 16.5 14 h -0.5 -0.5 v 2.5 2.5 z m 4.5,0 h 3 V 16.5 14 h -2.5 -2.5 v -1 -1 h -0.5 -0.5 v 3.5 3.5 z m 0,-1 h -2 V 17.5 17 h 0.5 0.5 v -1 -1 h 1.5 1.5 v 1.5 1.5 z m 0.5,-1 H 193 V 16.5 16 h -0.5 -0.5 v 0.5 0.5 z m -112,1 H 81 V 17.5 17 H 80.5 80 V 17.5 18 Z M 95,18 h 4 v -4 -4 h -4 -4 v 1.5 1.5 h 0.5 0.5 v -1 -1 h 3 3 v 3 3 H 94.5 91 v 0.5 0.5 z m 11.5,0 H 107 V 15.5 13 h -0.5 -0.5 v 2.5 2.5 z m 6,0 H 113 V 17.5 17 h -0.5 -0.5 v 0.5 0.5 z m 2,0 H 115 V 17.5 17 h -0.5 -0.5 v 0.5 0.5 z m 15,0 H 131 V 17.5 17 h -1.5 -1.5 v 0.5 0.5 z m 35,0 H 165 V 17.5 17 h -0.5 -0.5 v 0.5 0.5 z m 41,0 H 209 V 17.5 17 h -3.5 -3.5 v 0.5 0.5 z m 36.5,0 h 2 V 17.5 17 h -2 -2 v 0.5 0.5 z m 58,0 h 1 V 14.5 11 h -1 -1 V 10.5 10 h -0.5 -0.5 v 1 1 h 1 1 V 14.5 17 H 299.5 299 V 17.5 18 Z M 29.5,17 H 30 V 13.5 10 H 35.5 41 V 9.5 9 h -6 -6 v 4 4 z m 2,0 H 32 V 14.5 12 H 35.5 39 V 11.5 11 h -4 -4 v 3 3 z m 2,0 H 34 V 15.5 14 H 35.5 37 V 15.5 17 H 37.5 38 V 15 13 H 35.5 33 v 2 2 z m 24,0 H 64 V 16.5 16 H 57.5 51 v 0.5 0.5 z m 20,0 H 78 V 16 15 H 77.5 77 v 1 1 z m 23,0 H 101 V 12.5 8 H 95 89 V 10.5 13 H 89.5 90 V 11 9 h 5 5 v 4 4 z m 8,0 h 0.5 v -1 -1 h -0.5 -0.5 v 1 1 z m 137,0 h 0.5 v -1 -1 h -4 -4 v 0.5 0.5 h 3.5 3.5 v 0.5 0.5 z m 19,0 H 265 V 12.5 8 h 4 4 v 2 2 h 0.5 0.5 V 9.5 7 h -5 -5 v 5 5 z m 13.5,0 h 2 V 16.5 16 h -2 -2 v 0.5 0.5 z m 31,0 h 6 V 16.5 16 h -6 -6 V 16.5 17 Z M 4.5,16 H 6 V 15.5 15 H 4.5 3 v 0.5 0.5 z m 9,0 H 17 V 15.5 15 H 13.5 10 v 0.5 0.5 z m 11,0 H 25 V 15.5 15 H 24.5 24 v 0.5 0.5 z m 44,0 H 69 V 14.5 13 H 68.5 68 v 1.5 1.5 z m 2,0 H 71 V 15.5 15 H 70.5 70 V 15.5 16 Z M 95,16 h 2 v -2 -2 h -2 -2 v 0.5 0.5 h 1.5 1.5 v 1 1 H 94.5 93 v 0.5 0.5 z m 41.5,0 H 139 V 13.5 11 h -0.5 -0.5 v 2 2 h -1.5 -1.5 v -2 -2 h -0.5 -0.5 v 2.5 2.5 z m 39.5,0 h 2 V 15.5 15 h -2 -2 v 0.5 0.5 z m 29.5,0 H 207 V 15.5 15 h -1.5 -1.5 v 0.5 0.5 z m 77,0 h 0.5 v -3 -3 h -0.5 -0.5 v 3 3 z m 2,0 h 0.5 v -2 -2 h -0.5 -0.5 v 2 2 z m 2,0 h 0.5 v -1 -1 h -0.5 -0.5 v 1 1 z m 11.5,0 h 1 V 14.5 13 h -1 -1 V 12.5 12 h -0.5 -0.5 v 1.5 1.5 h 0.5 0.5 v 0.5 0.5 z m -0.5,-1 H 297 V 14.5 14 h 0.5 0.5 V 14.5 15 Z M 56,15 h 7 V 14 13 H 58 53 V 12 11 H 52.5 52 V 9.5 8 h -4 -4 v 1 1 H 44.5 45 V 9.5 9 h 3 3 v 1.5 1.5 h 0.5 0.5 v 1 1 H 50.5 49 v 0.5 0.5 z m 63.5,0 H 120 V 12 9 h 3 3 v 1.5 1.5 h 0.5 0.5 V 10 8 h -4 -4 v 3.5 3.5 z m 147,0 H 267 V 12.5 10 h 2 2 v 1 1 h 0.5 0.5 V 10.5 9 h -3 -3 v 3 3 z m 11,0 h 1.5 v -2 -2 h -1.5 -1.5 v 0.5 0.5 h 1 1 v 1 1 h -1 -1 v 0.5 0.5 z m 17,0 H 295 V 14.5 14 H 294.5 294 V 14.5 15 Z M 4.5,14 H 8 V 13.5 13 H 4.5 1 v 0.5 0.5 z m 11,0 H 19 V 13.5 13 H 15.5 12 v 0.5 0.5 z m 6,0 H 22 V 13.5 13 H 21.5 21 v 0.5 0.5 z m 26,0 H 48 V 13.5 13 h 1 1 V 11.5 10 H 48.5 47 v 0.5 0.5 h 1 1 v 0.5 0.5 h -1 -1 v 1 1 z m 89,0 H 137 V 13.5 13 h -0.5 -0.5 v 0.5 0.5 z m 88,0 H 229 V 13.5 13 h 2.5 2.5 v 0.5 0.5 h 0.5 0.5 v -1 -1 h -3.5 -3.5 v 0.5 0.5 h -4 -4 v 0.5 0.5 z m 16,0 H 245 V 13.5 13 h -4.5 -4.5 v 0.5 0.5 z m 14,0 H 255 V 11 8 h -3 -3 v 2.5 2.5 h 0.5 0.5 V 11 9 h 2 2 v 2.5 2.5 z m -132,-1 H 123 V 12.5 12 h -0.5 -0.5 v 0.5 0.5 z m 71,0 H 196 V 12.5 12 h -2 -2 V 11.5 11 h 2 2 V 10.5 10 h -3.5 -3.5 v 0.5 0.5 h 1 1 v 1 1 z m 12,0 H 207 V 12.5 12 h -1.5 -1.5 v 0.5 0.5 z m 63.5,0 h 1 v -1 -1 h -1 -1 v 1 1 z m -60.5,-1 h 0.5 v -1 -1 h -3.5 -3.5 v 0.5 0.5 h 3 3 v 0.5 0.5 z m 2,0 H 211 V 10 8 h -5.5 -5.5 v 1 1 h 0.5 0.5 V 9.5 9 h 4.5 4.5 v 1.5 1.5 z m 2,0 H 213 V 9 6 h -7.5 -7.5 v 2 2 h 0.5 0.5 V 8.5 7 h 6.5 6.5 V 9.5 12 Z m 4,0 H 217 V 9.5 7 h 1.5 1.5 V 8.5 10 h 0.5 0.5 V 8 6 h -2.5 -2.5 v 3 3 z m 35.5,0 h 1 v -1 -1 h -1 -1 v 1 1 z M 23.5,11 H 24 V 9 7 H 19.5 15 V 8.5 10 H 18.5 22 V 9.5 9 H 19 16 V 8.5 8 H 19.5 23 V 9.5 11 Z M 294,11 h 1 V 10 9 h -1 -1 v 1 1 z M 218.5,10 H 219 V 9 8 h -0.5 -0.5 v 1 1 z m 6,0 H 225 V 9.5 9 H 224.5 224 V 9.5 10 Z m 83.5,4 h -5 V 11.5 9 h -1 -1 V 8.5 8 h -1 -1 V 7.5 7 h 1.5 1.5 V 7.5 8 h 1 1 v 2.5 2.5 h 4 4 V 11.5 10 H 310.5 309 V 5.5 1 h 0.5 0.5 v 4 4 h 1.5 1.5 v 2.5 2.5 z m 0,-2 h -3 V 10 8 h 0.5 0.5 V 9.5 11 h 0.5 0.5 V 6 1 h 0.5 0.5 v 5 5 h 1.5 1.5 V 11.5 12 Z M 68.5,9 H 57 V 6 3 H 57.5 58 V 5.5 8 H 68.5 79 V 7 6 H 79.5 80 V 5.5 5 H 80.5 81 V 6 7 H 80.5 80 V 8 9 Z M 278,9 h -2 V 7 5 h 0.5 0.5 V 6.5 8 h 1 1 V 7.5 7 h 0.5 0.5 V 6.5 6 h 0.5 0.5 V 6.5 7 h 4 4 V 7.5 8 H 284.5 280 V 8.5 9 Z M 5,8 H 0 V 7 6 H 0.5 1 V 6.5 7 H 5 9 V 4 1 H 9.5 10 V 4.5 8 Z M 190.5,8 H 187 V 6.5 5 h 0.5 0.5 v 1 1 h 2.5 2.5 V 6 5 h 0.5 0.5 V 6.5 8 Z M 234,8 h -8 V 5 2 h 0.5 0.5 V 4.5 7 h 7 7 V 6.5 6 h 0.5 0.5 V 7 8 Z M 68.5,7 H 59 V 5 3 H 59.5 60 V 4.5 6 H 68.5 77 V 5 4 H 77.5 78 V 5.5 7 Z M 304,7 h -1 V 6.5 6 h -1 -1 V 5.5 5 h 1 1 V 5.5 6 h 1 1 V 6.5 7 Z M 5,6 H 2 V 4 2 H 2.5 3 V 3.5 5 H 5 7 V 3 1 H 7.5 8 V 3.5 6 Z m 98.5,0 H 100 V 4.5 3 h 0.5 0.5 v 1 1 h 3 3 V 5.5 6 Z m 36,0 H 139 V 3.5 1 h 0.5 0.5 V 3.5 6 Z m 51,0 H 189 V 5.5 5 h 1 1 V 4.5 4 h 0.5 0.5 V 5 6 Z M 234,6 h -6 V 4 2 h 0.5 0.5 V 3.5 5 h 5 5 V 4.5 4 h 0.5 0.5 v 1 1 z m 44.5,0 H 278 V 5.5 5 h 0.5 0.5 V 5.5 6 Z m 7.5,0 h -3 V 5.5 5 h 3 3 V 5.5 6 Z M 134.5,5 H 132 V 4 3 h 0.5 0.5 V 3.5 4 h 2 2 V 2.5 1 h 0.5 0.5 V 2.5 4 H 137.5 137 V 4.5 5 Z M 155,5 H 141 V 3 1 h 0.5 0.5 V 2.5 4 H 155.5 169 V 4.5 5 Z M 305.5,5 H 305 V 4.5 4 h 0.5 0.5 V 4.5 5 Z M 5,4 H 4 V 3 2 H 5 6 V 3 4 Z M 45.5,4 H 37 V 3.5 3 H 45.5 54 V 3.5 4 Z m 16,0 H 61 V 3.5 3 H 61.5 62 V 3.5 4 Z m 14,0 H 75 V 3.5 3 H 75.5 76 V 3.5 4 Z M 103,4 h -1 V 3.5 3 h 1 1 V 3.5 4 Z m 14,0 h -2 V 3.5 3 h 1.5 1.5 V 1.5 0 h 0.5 0.5 v 2 2 z m 9.5,0 H 124 V 3.5 3 h 2.5 2.5 V 3.5 4 Z m 57,0 H 183 V 2 0 h 0.5 0.5 V 2 4 Z M 203,4 h -6 V 3.5 3 h 6 6 V 3.5 4 Z m 31,0 h -4 V 3 2 h 0.5 0.5 V 2.5 3 h 3 3 V 1.5 0 h 0.5 0.5 v 2 2 z m 15.5,0 H 248 V 3.5 3 h 1 1 V 1.5 0 h 0.5 0.5 V 2 4 Z M 135,3 h -1 V 2.5 2 h 0.5 0.5 V 1.5 1 h 0.5 0.5 V 2 3 Z M 263.5,3 H 263 V 2 1 H 262.5 262 V 0.5 0 h 1 1 V 1.5 3 Z m 2,0 H 265 V 1.5 0 h 0.5 0.5 V 1.5 3 Z m 50,0 H 315 V 2 1 h 0.5 0.5 V 2 3 Z M 11.5,2 H 11 V 1 0 H 11.5 12 V 1 2 Z M 173,2 h -1 V 1.5 1 h 1 1 V 1.5 2 Z m 8.5,0 H 181 V 1 0 h 0.5 0.5 v 1 1 z m 4,0 H 185 V 1 0 h 0.5 0.5 V 1 2 Z M 218,2 h -5 V 1.5 1 h 5 5 V 1.5 2 Z m 29.5,0 H 246 V 1.5 1 h 1 1 V 0.5 0 h 0.5 0.5 v 1 1 z m 5,0 H 252 V 1 0 h 0.5 0.5 v 1 1 z m -93,-1 H 151 V 0.5 0 h 8.5 8.5 V 0.5 1 Z m 76,0 H 235 V 0.5 0 h 0.5 0.5 V 0.5 1 Z m 32,0 H 267 V 0.5 0 h 0.5 0.5 V 0.5 1 Z"
    />
</svg>
