<?xml version="1.0" encoding="UTF-8" standalone="no"?>
<!-- Created with Inkscape (http://www.inkscape.org/) -->

<svg
   width="320"
   height="20"
   viewBox="0 0 320 20"
   version="1.1"
   id="svg5"
   xml:space="preserve"
   inkscape:version="1.2.2 (732a01da63, 2022-12-09)"
   sodipodi:docname="traced-20.svg"
   xmlns:inkscape="http://www.inkscape.org/namespaces/inkscape"
   xmlns:sodipodi="http://sodipodi.sourceforge.net/DTD/sodipodi-0.dtd"
   xmlns="http://www.w3.org/2000/svg"
   xmlns:svg="http://www.w3.org/2000/svg"><sodipodi:namedview
     id="namedview7"
     pagecolor="#ffffff"
     bordercolor="#000000"
     borderopacity="0.25"
     inkscape:showpageshadow="2"
     inkscape:pageopacity="0.0"
     inkscape:pagecheckerboard="0"
     inkscape:deskcolor="#d1d1d1"
     inkscape:document-units="px"
     showgrid="true"
     inkscape:zoom="8"
     inkscape:cx="101.6875"
     inkscape:cy="31.125"
     inkscape:window-width="2560"
     inkscape:window-height="1377"
     inkscape:window-x="1912"
     inkscape:window-y="-8"
     inkscape:window-maximized="1"
     inkscape:current-layer="svg5"><inkscape:grid
       type="xygrid"
       id="grid132" /></sodipodi:namedview><defs
     id="defs2" /><path
     style="fill:#000000;stroke-width:0.2"
     d="M 160,20 H 0 V 16.5 13 H 5.5 11 V 13.5 14 H 11.5 12 V 13 12 H 6 0 V 11.5 11 H 6.5 13 v 1.5 1.5 h 0.5 0.5 v -2 -2 h 3 3 V 10.5 11 H 20.5 21 V 10 9 H 17.5 14 V 5.5 2 H 14.5 15 V 5 8 H 18.5 22 V 9.5 11 H 22.5 23 V 9 7 H 19.5 16 V 5 3 H 16.5 17 V 4.5 6 H 20.5 24 V 8.5 11 H 24.5 25 V 8.5 6 h 1 1 V 5 4 H 27.5 28 V 5.5 7 h -1 -1 v 2 2 H 26.5 27 V 9.5 8 h 1 1 V 6 4 H 29.5 30 V 6.5 9 H 29 28 V 9.5 10 H 32.5 37 V 9 8 H 35 33 V 6 4 H 33.5 34 V 5.5 7 h 2 2 v 2 2 H 38.5 39 V 9 7 h 0.5 0.5 v 3 3 H 40.5 41 V 10 7 h 4 4 v 4 4 h 1 1 V 12 9 h 8 8 V 8.5 8 H 63.5 60 V 7 6 H 58.5 57 V 4 2 h 2 2 V 4.5 7 H 64.5 68 V 8.5 10 h -8 -8 v 3 3 H 52.5 53 V 13.5 11 h 8 8 V 8 5 h 0.5 0.5 v 5 5 H 70.5 71 V 10.5 6 H 71.5 72 V 10.5 15 H 72.5 73 V 11 7 h 4 4 V 7.5 8 H 77.5 74 V 11.5 15 H 77.5 81 V 12 9 H 81.5 82 V 12.5 16 H 77 72 V 16.5 17 H 77.5 83 V 13 9 h 0.5 0.5 v 5 5 H 84.5 85 V 14.5 10 H 87.5 90 V 14.5 19 H 90.5 91 V 14 9 H 88 85 V 8.5 8 H 88.5 92 V 12.5 17 H 92.5 93 V 13 9 H 93.5 94 V 8.5 8 h 4 4 v 3.5 3.5 h 4.5 4.5 V 14.5 14 h -4 -4 V 10.5 7 h -3 -3 V 6.5 6 h 3.5 3.5 V 9.5 13 h 4.5 4.5 V 12.5 12 h -4 -4 V 8.5 5 h 0.5 0.5 v 3 3 h 4.5 4.5 V 10.5 10 h 7 7 V 5.5 1 h 0.5 0.5 v 4 4 h 2.5 2.5 v 3 3 h 0.5 0.5 V 11.5 8 H 133.5 131 V 5 2 h 0.5 0.5 V 4.5 7 h 2.5 2.5 v 4.5 4.5 h 0.5 0.5 V 12 8 h 2 2 v 1 1 h 4 4 V 9.5 9 H 146.5 143 V 7.5 6 h 0.5 0.5 v 1 1 h 3.5 3.5 v 1 1 h 0.5 0.5 V 9.5 9 h 1 1 v 1 1 h -1.5 -1.5 v 0.5 0.5 h 2 2 V 10 8 h 0.5 0.5 v 2.5 2.5 h 0.5 0.5 V 9.5 6 h 0.5 0.5 v 4 4 h 0.5 0.5 V 11 8 h 0.5 0.5 v 2.5 2.5 h 2.5 2.5 V 11 9 h 0.5 0.5 v 3 3 h 0.5 0.5 v 0.5 0.5 h 0.5 0.5 V 12.5 9 h 0.5 0.5 v 3.5 3.5 h 0.5 0.5 v -3 -3 h 4 4 v 2 2 h 0.5 0.5 V 11.5 9 H 177.5 176 V 8 7 h 0.5 0.5 V 7.5 8 h 6.5 6.5 V 6 4 h 0.5 0.5 V 6.5 9 h -5.5 -5.5 v 2.5 2.5 h 0.5 0.5 v -2 -2 h 3.5 3.5 v 0.5 0.5 h 1 1 V 10.5 10 h 0.5 0.5 v 1.5 1.5 h 1 1 v 0.5 0.5 h 0.5 0.5 v -1 -1 h -1 -1 V 8.5 5 h 0.5 0.5 v 3 3 h 1 1 v 1.5 1.5 h 0.5 0.5 V 12.5 11 h 4 4 v 1 1 h 0.5 0.5 v -1 -1 h 1 1 V 8.5 6 h 0.5 0.5 V 5 4 h 6 6 V 4.5 5 H 214.5 209 V 9.5 14 h 0.5 0.5 V 10 6 h 6 6 V 6.5 7 h -5.5 -5.5 v 3.5 3.5 h 0.5 0.5 V 11 8 h 5 5 v 1 1 h 0.5 0.5 V 8.5 7 h 0.5 0.5 V 8.5 10 h 0.5 0.5 V 9.5 9 h 4 4 V 6.5 4 h 0.5 0.5 V 5.5 7 h 6.5 6.5 V 7.5 8 h -6.5 -6.5 v 1 1 h -3.5 -3.5 v 0.5 0.5 h 4 4 V 10 9 h 7.5 7.5 v 1 1 h 0.5 0.5 V 10 9 h 0.5 0.5 v 1.5 1.5 h 0.5 0.5 v 2.5 2.5 h 0.5 0.5 V 12.5 8 H 252.5 251 V 7.5 7 h 2 2 v 5 5 h 0.5 0.5 V 12.5 8 h 2.5 2.5 V 7 6 h 0.5 0.5 V 6.5 7 h 2 2 V 7.5 8 h 1 1 V 7 6 h 0.5 0.5 V 7.5 9 h -6 -6 v 3.5 3.5 h 0.5 0.5 v -3 -3 h 6 6 V 8 6 h 0.5 0.5 V 8.5 11 h -6 -6 v 2.5 2.5 h 0.5 0.5 v -2 -2 h 5.5 5.5 v 1.5 1.5 h 0.5 0.5 V 14.5 14 h 6 6 V 13.5 13 h -6 -6 V 9.5 6 h 0.5 0.5 v 3 3 h 5.5 5.5 V 7 2 h 0.5 0.5 V 6.5 11 h 11 11 v 1.5 1.5 h 1.5 1.5 V 11.5 9 h 5 5 V 14.5 20 Z M 86.5,19 H 87 V 15.5 12 H 87.5 88 V 15.5 19 H 88.5 89 V 15 11 H 87.5 86 v 4 4 z M 45,18 h 1 V 16.5 15 H 45 44 V 15.5 16 H 44.5 45 V 16.5 17 H 44.5 44 v 0.5 0.5 z m 2.5,0 H 48 V 17 16 H 47.5 47 v 1 1 z M 251,18 h 2 V 17.5 17 h -2 -2 v 0.5 0.5 z m 14.5,0 H 266 V 17.5 17 h -0.5 -0.5 v 0.5 0.5 z m 41,0 H 309 V 17.5 17 H 306.5 304 V 17.5 18 Z M 54.5,17 H 55 v -2 -2 h 6 6 v 2 2 H 67.5 68 V 14.5 12 h -7 -7 v 2.5 2.5 z m 2,0 H 57 V 15.5 14 H 56.5 56 v 1.5 1.5 z m 7,0 H 64 V 16.5 16 H 63.5 63 v 0.5 0.5 z m 2,0 H 66 V 15.5 14 H 65.5 65 v 1.5 1.5 z m 40,0 H 109 V 16.5 16 h -3.5 -3.5 v 0.5 0.5 z m 94.5,0 h 1 V 16.5 16 h -1 -1 v 0.5 0.5 z m 110.5,0 h 0.5 v -1 -1 h 0.5 0.5 V 12.5 10 H 311.5 311 V 12.5 15 H 308.5 306 V 13.5 12 h -10 -10 v 0.5 0.5 h 9.5 9.5 v 1 1 h 0.5 0.5 v 0.5 0.5 h 2 2 v 0.5 0.5 z m 8,0 H 319 V 16.5 16 h -0.5 -0.5 v 0.5 0.5 z m -192,-1 H 127 V 14.5 13 h -1 -1 v 0.5 0.5 h 0.5 0.5 v 1 1 z m 13,0 h 0.5 v -2 -2 h 1 1 v 1 1 h 0.5 0.5 V 12.5 11 h -1 -1 V 10 9 h -1 -1 v 3.5 3.5 z m 32,0 h 0.5 v -2 -2 h 2 2 v 0.5 0.5 h 0.5 0.5 v -1 -1 h -3 -3 v 2.5 2.5 z m 68,0 H 240 V 14.5 13 h -0.5 -0.5 v 1.5 1.5 z m 2,0 H 242 V 14.5 13 h -0.5 -0.5 v 1.5 1.5 z m 2,0 H 244 V 15.5 15 h -0.5 -0.5 v 0.5 0.5 z m 18,0 h 0.5 v -1 -1 h 3.5 3.5 v 0.5 0.5 h 0.5 0.5 v -1 -1 h -4.5 -4.5 v 1.5 1.5 z m 2,0 H 264 V 15.5 15 H 263.5 263 V 15.5 16 Z M 94.5,15 H 95 V 12.5 10 h 2.5 2.5 v 2.5 2.5 h 0.5 0.5 V 12 9 H 97.5 94 v 3 3 z m 34,0 h 0.5 v -2 -2 h -3.5 -3.5 v 0.5 0.5 h 3 3 v 1.5 1.5 z m 45,0 H 174 V 14.5 14 h 0.5 0.5 V 13.5 13 h -1 -1 v 1 1 z m 16.5,0 h 1 V 14.5 14 H 190.5 190 V 13.5 13 h -0.5 -0.5 v 1 1 z m 61,0 h 1 v -1 -1 h -1 -1 v 1 1 z m 45,0 h 8 V 14.5 14 h -8 -8 v 0.5 0.5 z m 17.5,0 H 314 V 13.5 12 h -0.5 -0.5 v 1.5 1.5 z m 2,0 H 316 V 14.5 14 H 315.5 315 V 14.5 15 Z M 15.5,14 H 16 V 13 12 H 17.5 19 V 11.5 11 H 17 15 V 12.5 14 Z M 45,14 h 3 V 11 8 h -3 -3 v 3 3 z m 0,-1 H 43 V 11 9 h 2 2 v 2 2 z m 0,-1 h 1 v -1 -1 h -1 -1 v 1 1 z m 99.5,2 H 145 V 12.5 11 h -0.5 -0.5 v 1.5 1.5 z m 2,0 H 147 V 13.5 13 h -0.5 -0.5 v 0.5 0.5 z m 36,0 h 0.5 v -1 -1 h 1.5 1.5 v 0.5 0.5 h 0.5 0.5 v -1 -1 h -2.5 -2.5 v 1.5 1.5 z m 2,0 H 185 V 13.5 13 h -0.5 -0.5 v 0.5 0.5 z m 13,0 H 198 V 13.5 13 h -0.5 -0.5 v 0.5 0.5 z m 10,0 h 0.5 v -1 -1 h -1 -1 v 0.5 0.5 h 0.5 0.5 v 0.5 0.5 z m 6,0 h 0.5 v -2 -2 h 3.5 3.5 V 9.5 9 h -4 -4 v 2.5 2.5 z m 2,0 H 216 V 12.5 11 h -0.5 -0.5 v 1.5 1.5 z m 33,0 H 249 V 13.5 13 H 248.5 248 V 13.5 14 Z M 97.5,13 H 99 V 12 11 H 98.5 98 V 11.5 12 H 97.5 97 V 11.5 11 H 96.5 96 v 1 1 z m 33,0 h 0.5 v -1 -1 h 1 1 v 1 1 h 0.5 0.5 V 11.5 10 h -2 -2 V 11.5 13 Z M 233,13 h 4 V 12 11 H 236.5 236 V 11.5 12 H 232.5 229 V 12.5 13 Z M 59,5 h 1 V 4 3 h -1 -1 v 1 1 z m 18.5,9 H 75 V 11.5 9 h 2.5 2.5 v 2.5 2.5 z m 0,-1 H 79 V 11.5 10 H 77.5 76 v 1.5 1.5 z m 0,-1 H 77 V 11.5 11 h 0.5 0.5 v 0.5 0.5 z m 231,1 H 308 V 11.5 10 H 297 286 V 6 2 h 0.5 0.5 V 5.5 9 h 5 5 V 7 5 h 0.5 0.5 V 6.5 8 h 2.5 2.5 V 5 2 h 0.5 0.5 V 5.5 9 h 2 2 V 8 7 h 6 6 V 7.5 8 h -5.5 -5.5 v 2.5 2.5 z m -146,-1 H 161 V 10.5 9 h 1.5 1.5 v 1.5 1.5 z m 0,-1 H 163 V 10.5 10 h -0.5 -0.5 v 0.5 0.5 z m 116,0 H 274 V 8.5 6 h 0.5 0.5 v 2 2 h 3.5 3.5 V 6.5 3 h 0.5 0.5 v 4 4 z M 6.5,10 H 0 V 9.5 9 h 6 6 V 5.5 2 h 0.5 0.5 v 4 4 z M 200,10 h -6 V 7 4 h 0.5 0.5 V 6.5 9 h 5 5 V 7.5 6 h 0.5 0.5 v 2 2 z M 31.5,9 H 31 V 6 3 h 0.5 0.5 v 3 3 z m 86,0 H 107 V 8.5 8 h 10 10 V 4.5 1 h 0.5 0.5 v 4 4 z m 161,0 H 276 V 7 5 h 0.5 0.5 V 4.5 4 h 2 2 V 6.5 9 Z m 0,-1 H 280 V 6.5 5 H 278.5 277 V 6.5 8 Z m 0,-1 H 278 V 6.5 6 h 0.5 0.5 V 6.5 7 Z M 5.5,8 H 0 V 7.5 7 h 5 5 V 4.5 2 h 0.5 0.5 v 3 3 z m 49,0 H 50 V 7 6 H 45 40 V 5.5 5 h 5 5 V 5.5 6 H 50.5 51 V 6.5 7 h 2 2 V 6 5 H 54.5 54 V 4 3 H 54.5 55 V 2 1 H 55.5 56 V 0.5 0 H 57.5 59 V 0.5 1 H 57.5 56 V 4 7 H 57.5 59 V 7.5 8 Z M 292,8 h -4 V 4.5 1 h 4 4 V 1.5 2 H 292.5 289 V 4.5 7 h 3 3 V 6 5 h 0.5 0.5 V 6.5 8 Z m 14,0 h -1 V 4.5 1 h 4 4 V 1.5 2 H 309.5 306 V 3.5 5 h 7 7 V 5.5 6 H 313.5 307 V 7 8 Z M 89.5,7 H 87 V 6.5 6 h 2 2 V 5.5 5 h 0.5 0.5 v 1 1 z m 4,0 H 93 V 6 5 H 93.5 94 V 4.5 4 H 95.5 97 V 4.5 5 H 95.5 94 v 1 1 z m 24,0 H 109 V 6.5 6 h 8 8 V 3.5 1 h 0.5 0.5 V 4 7 Z M 184,7 h -5 V 6.5 6 h 4.5 4.5 V 4.5 3 h 0.5 0.5 v 2 2 z m 12.5,0 H 196 V 5.5 4 h 0.5 0.5 V 5.5 7 Z m 7,0 H 203 V 6.5 6 h 0.5 0.5 V 6.5 7 Z M 258,7 h -2 V 6.5 6 h 2 2 V 6.5 7 Z M 74.5,6 H 73 V 5.5 5 H 74.5 76 V 5.5 6 Z M 134,6 h -1 V 5 4 h 1 1 v 1 1 z m 2.5,0 H 136 V 5.5 5 h 0.5 0.5 V 5.5 6 Z m 9,0 H 145 V 5.5 5 h 0.5 0.5 V 5.5 6 Z M 170,6 h -1 V 5.5 5 h 1 1 V 5.5 6 Z m 70,0 h -5 V 4.5 3 h -2 -2 V 2.5 2 h 2 2 V 1 0 h 0.5 0.5 V 2.5 5 h 4.5 4.5 V 5.5 6 Z m 11.5,0 H 249 V 5.5 5 h 2.5 2.5 V 5.5 6 Z m 39,0 H 290 V 4.5 3 h 2 2 V 3.5 4 h -1.5 -1.5 v 1 1 z m 3,0 H 293 V 5.5 5 h 0.5 0.5 V 5.5 6 Z m 6,0 H 299 V 5.5 5 h 0.5 0.5 V 5.5 6 Z m 2,0 H 301 V 5 4 h 0.5 0.5 V 5 6 Z M 1.5,5 H 1 V 2.5 0 H 1.5 2 V 2.5 5 Z m 7,0 H 8 V 3.5 2 H 8.5 9 V 3.5 5 Z m 17,0 H 25 V 4.5 4 H 25.5 26 V 4.5 5 Z m 10,0 H 35 V 4.5 4 H 35.5 36 V 4.5 5 Z m 31,0 H 66 V 4.5 4 H 66.5 67 V 4.5 5 Z m 48,0 H 113 V 4.5 4 h 1.5 1.5 V 4.5 5 Z m 84,0 H 198 V 4.5 4 h 0.5 0.5 V 4.5 5 Z m -75,-1 H 123 V 2.5 1 h 0.5 0.5 V 2.5 4 Z m 63,0 H 186 V 3.5 3 h 0.5 0.5 V 3.5 4 Z M 240,4 h -3 V 2 0 h 0.5 0.5 V 1.5 3 h 2.5 2.5 V 3.5 4 Z m 71,0 h -4 V 3.5 3 h 4 4 V 3.5 4 Z M 3.5,3 H 3 V 1.5 0 H 3.5 4 V 1.5 3 Z m 3,0 H 6 V 2.5 2 H 6.5 7 V 2.5 3 Z m 157,0 H 163 V 2.5 2 h 0.5 0.5 V 2.5 3 Z M 200,3 h -1 V 2.5 2 h 1 1 V 2.5 3 Z m 9.5,0 H 209 V 2.5 2 h 0.5 0.5 V 2.5 3 Z m 8.5,0 h -4 V 2.5 2 h 4 4 V 2.5 3 Z M 318.5,3 H 317 V 2.5 2 h 1.5 1.5 V 2.5 3 Z M 25.5,2 H 25 V 1 0 h 0.5 0.5 v 1 1 z m 96,0 H 121 V 1 0 h 0.5 0.5 v 1 1 z m 70,0 H 191 V 1 0 h 0.5 0.5 V 1 2 Z M 240,2 h -1 V 1.5 1 h 1 1 V 1.5 2 Z M 177.5,1 H 177 V 0.5 0 h 0.5 0.5 V 0.5 1 Z M 220,1 h -4 V 0.5 0 h 4 4 V 0.5 1 Z m 11,0 h -2 V 0.5 0 h 2 2 V 0.5 1 Z"
     id="path450" /></svg>
