<?xml version="1.0" encoding="UTF-8" standalone="no"?>
<!-- Created with Inkscape (http://www.inkscape.org/) -->

<svg
   width="320"
   height="20"
   viewBox="0 0 320 20"
   version="1.1"
   id="svg5"
   xml:space="preserve"
   inkscape:version="1.2.2 (732a01da63, 2022-12-09)"
   sodipodi:docname="traced-16.svg"
   xmlns:inkscape="http://www.inkscape.org/namespaces/inkscape"
   xmlns:sodipodi="http://sodipodi.sourceforge.net/DTD/sodipodi-0.dtd"
   xmlns="http://www.w3.org/2000/svg"
   xmlns:svg="http://www.w3.org/2000/svg"><sodipodi:namedview
     id="namedview7"
     pagecolor="#ffffff"
     bordercolor="#000000"
     borderopacity="0.25"
     inkscape:showpageshadow="2"
     inkscape:pageopacity="0.0"
     inkscape:pagecheckerboard="0"
     inkscape:deskcolor="#d1d1d1"
     inkscape:document-units="px"
     showgrid="true"
     inkscape:zoom="5.6568543"
     inkscape:cx="103.1492"
     inkscape:cy="11.313708"
     inkscape:window-width="2560"
     inkscape:window-height="1377"
     inkscape:window-x="1912"
     inkscape:window-y="-8"
     inkscape:window-maximized="1"
     inkscape:current-layer="svg5"><inkscape:grid
       type="xygrid"
       id="grid132" /></sodipodi:namedview><defs
     id="defs2" /><path
     style="fill:#000000;stroke-width:0.2"
     d="M 160,20 H 0 V 19.5 19 H 2 4 V 18.5 18 H 2 0 V 17.5 17 H 0.5 1 V 16.5 16 H 0.5 0 V 11.5 7 h 7 7 V 7.5 8 h 0.5 0.5 v 1 1 h 3.5 3.5 v 1 1 h 2 2 v 1 1 H 26.5 27 V 12.5 11 H 25 23 V 10 9 H 19.5 16 V 8.5 8 h 4 4 v 1 1 h 2 2 v 2 2 H 28.5 29 V 13 12 H 30.5 32 V 11.5 11 H 31 30 V 9.5 8 h 0.5 0.5 v 1 1 h 1 1 v 1 1 H 33.5 34 V 10.5 9 H 33 32 V 8.5 8 h 1.5 1.5 v 2 2 H 35.5 36 V 9.5 7 H 37.5 39 V 5.5 4 H 38.5 38 V 5 6 H 37.5 37 V 5 4 H 37.5 38 V 3.5 3 h 1 1 V 5.5 8 H 38.5 37 v 2 2 H 37.5 38 V 10.5 9 H 39.5 41 V 6 3 H 41.5 42 V 6.5 10 H 40.5 39 v 1 1 H 39.5 40 V 11.5 11 h 5 5 v 2 2 H 50.5 51 V 12.5 10 h 3 3 V 7.5 5 h 0.5 0.5 v 3 3 h -3 -3 v 2 2 H 52.5 53 V 13.5 12 h 3 3 V 8.5 5 h 0.5 0.5 v 4 4 H 59 58 V 13.5 14 H 59.5 61 V 9.5 5 h 0.5 0.5 v 3 3 H 62.5 63 V 8 5 H 63.5 64 V 7.5 10 h 1 1 v 2 2 h 4 4 v 2 2 H 74.5 75 V 15.5 13 H 71 67 V 11 9 H 66 65 V 7 5 H 65.5 66 V 6.5 8 h 1 1 v 2 2 h 4 4 v 3 3 H 76.5 77 V 16.5 15 H 79.5 82 V 14.5 14 H 79.5 77 V 12.5 11 H 75.5 74 V 8.5 6 H 74.5 75 V 7.5 9 h 1.5 1.5 v 2 2 h 3 3 V 12.5 12 H 81.5 79 V 10.5 9 h 0.5 0.5 v 1 1 h 3 3 V 10.5 10 H 83.5 81 V 9.5 9 H 84.5 88 V 9.5 10 H 88.5 89 V 8.5 7 H 89.5 90 V 5 3 H 91.5 93 V 3.5 4 H 92 91 V 5.5 7 h 1.5 1.5 v 3 3 H 94.5 95 V 9.5 6 H 93.5 92 V 5.5 5 h 2 2 v 4 4 H 96.5 97 V 8 3 h 0.5 0.5 v 5 5 H 98.5 99 V 8 3 h 0.5 0.5 V 1.5 0 h 0.5 0.5 v 5 5 h 0.5 0.5 V 5 0 h 0.5 0.5 v 5 5 h 7.5 7.5 v 1.5 1.5 h 0.5 0.5 V 11 9 H 111.5 104 V 4.5 0 h 0.5 0.5 v 4 4 h 7.5 7.5 v 2.5 2.5 h 5 5 V 11.5 10 h 1 1 v 2 2 h 0.5 0.5 V 11.5 9 h -2 -2 v 1.5 1.5 h -4 -4 V 9.5 7 H 113.5 106 V 3.5 0 h 0.5 0.5 v 3 3 h 7.5 7.5 V 8.5 11 h 3 3 V 9.5 8 h 3 3 v 2 2 h 2.5 2.5 v 1.5 1.5 h 0.5 0.5 v -1 -1 h 4.5 4.5 V 12.5 12 h -2 -2 V 8.5 5 h 0.5 0.5 v 3 3 h 2.5 2.5 V 9 7 H 150.5 150 V 3.5 0 h 0.5 0.5 V 3.5 7 h 5.5 5.5 V 7.5 8 h -5 -5 v 3.5 3.5 h 0.5 0.5 V 12 9 h 4 4 v 4 4 h 0.5 0.5 V 13 9 h 0.5 0.5 v 5 5 h 0.5 0.5 V 14 9 h 1 1 V 6.5 4 h 0.5 0.5 v 3 3 h -1 -1 v 0.5 0.5 h 1.5 1.5 V 7.5 4 h 0.5 0.5 v 4 4 h -1 -1 v 0.5 0.5 h 1.5 1.5 V 7.5 2 h 0.5 0.5 V 5.5 9 h 2 2 v 3 3 h 0.5 0.5 V 11.5 8 h -2 -2 V 5.5 3 h 0.5 0.5 v 2 2 h 1.5 1.5 V 6.5 6 h 0.5 0.5 v 4 4 h 1.5 1.5 v 1.5 1.5 h 0.5 0.5 V 15 13 H 179.5 178 V 9 5 h 0.5 0.5 V 8.5 12 H 194.5 210 V 10.5 9 h 0.5 0.5 v 2.5 2.5 h 0.5 0.5 v -1 -1 h 0.5 0.5 V 11.5 11 h 1.5 1.5 V 9.5 8 h 5 5 V 6.5 5 h 0.5 0.5 v 2 2 h -5 -5 v 2 2 h 0.5 0.5 V 11.5 10 h 5 5 V 7.5 5 h 0.5 0.5 v 3 3 h -5 -5 v 2 2 h 0.5 0.5 V 13.5 12 h 5 5 V 8.5 5 h 0.5 0.5 V 7.5 10 h 6.5 6.5 v 0.5 0.5 h 1 1 v 1 1 h 7 7 V 9 5 h 0.5 0.5 V 9.5 14 h 0.5 0.5 V 9.5 5 h 0.5 0.5 V 8.5 12 h 0.5 0.5 V 8.5 5 h 0.5 0.5 V 7.5 10 h 4 4 V 7.5 5 h 0.5 0.5 V 8.5 12 h 0.5 0.5 V 8.5 5 h 0.5 0.5 V 9.5 14 h 0.5 0.5 V 9.5 5 h 0.5 0.5 v 5 5 h 0.5 0.5 V 10 5 h 0.5 0.5 v 3 3 h 0.5 0.5 V 8 5 h 0.5 0.5 V 7.5 10 h 0.5 0.5 V 7.5 5 h 0.5 0.5 V 9.5 14 h 0.5 0.5 V 10 6 h 3 3 V 6.5 7 h -2.5 -2.5 v 3.5 3.5 h 2.5 2.5 V 13.5 13 h -2 -2 V 10.5 8 h 1.5 1.5 v 1 1 h 0.5 0.5 V 9 8 h 0.5 0.5 V 7.5 7 h 0.5 0.5 v 1 1 h 1.5 1.5 V 11.5 14 H 306.5 317 V 11.5 9 h 1.5 1.5 V 9.5 10 h -1 -1 v 3 3 h 0.5 0.5 V 13.5 11 h 0.5 0.5 v 4.5 4.5 z m 62.5,-1 H 223 V 18.5 18 h -0.5 -0.5 v 0.5 0.5 z m 5,0 h 0.5 v -1 -1 h -1.5 -1.5 v 0.5 0.5 h 1 1 v 0.5 0.5 z m 2,0 h 0.5 v -2 -2 h -3.5 -3.5 v 1 1 h 0.5 0.5 V 16.5 16 h 2.5 2.5 v 1.5 1.5 z m 2,0 h 0.5 v -3 -3 h -5.5 -5.5 v 2 2 h 0.5 0.5 V 15.5 14 h 4.5 4.5 v 2.5 2.5 z m 2,0 H 234 V 15.5 12 h -0.5 -0.5 v 3.5 3.5 z m 2,0 H 236 V 16.5 14 H 235.5 235 V 16.5 19 Z M 11.5,18 H 12 V 14 10 H 11.5 11 v 4 4 z m 59,0 H 71 V 17.5 17 H 70.5 70 v 0.5 0.5 z m 2,0 H 73 V 16.5 15 H 72.5 72 v 1.5 1.5 z m 110,0 h 0.5 v -2 -2 h -0.5 -0.5 v 2 2 z m 2,0 h 0.5 v -1 -1 h -0.5 -0.5 v 1 1 z m 26,0 H 211 V 17.5 17 h -0.5 -0.5 v 0.5 0.5 z m 28,0 h 0.5 v -1 -1 h -0.5 -0.5 v 1 1 z m 2,0 h 0.5 v -1 -1 h -0.5 -0.5 v 1 1 z m 50,0 h 0.5 v -1 -1 h -3.5 -3.5 v -1 -1 h -1.5 -1.5 v 0.5 0.5 h 1 1 v 1 1 h 3.5 3.5 V 17.5 18 Z M 16,17 h 1 V 16.5 16 H 16.5 16 V 15.5 15 H 15.5 15 v 1 1 z m 6,0 h 1 V 16.5 16 H 22.5 22 V 15.5 15 H 21.5 21 v 1 1 z m 57,0 h 1 V 16.5 16 h -1 -1 v 0.5 0.5 z m 202.5,0 H 282 V 16.5 16 h -0.5 -0.5 v 0.5 0.5 z m 29.5,0 h 5 V 16.5 16 h -5 -5 V 16.5 17 Z M 9.5,16 H 10 V 14 12 H 9.5 9 v 2 2 z m 4,0 H 14 V 14.5 13 H 13.5 13 V 14.5 16 Z M 56,16 h 2 V 15.5 15 h -2 -2 v 0.5 0.5 z m 115,0 h 4 V 15.5 15 h -4 -4 v 0.5 0.5 z m 37.5,0 h 0.5 v -1 -1 h -1 -1 v 0.5 0.5 h 0.5 0.5 v 0.5 0.5 z m 90.5,0 h 5 V 15.5 15 H 299.5 295 V 12.5 10 h -1 -1 v 0.5 0.5 h 0.5 0.5 V 13.5 16 Z M 46.5,15 H 47 V 14.5 14 H 46.5 46 v 0.5 0.5 z m 2,0 H 49 V 13.5 12 H 48.5 48 v 1.5 1.5 z m 15,0 H 65 V 13 11 H 64.5 64 v 1.5 1.5 h -1 -1 v 0.5 0.5 z m 74,0 H 138 V 14.5 14 h -0.5 -0.5 v 0.5 0.5 z m 4,0 H 142 V 14.5 14 h -0.5 -0.5 v 0.5 0.5 z m 13,0 h 0.5 v -2 -2 h 2 2 v 2 2 h 0.5 0.5 V 12.5 10 h -3 -3 v 2.5 2.5 z m 86.5,0 h 1 V 14.5 14 h -1 -1 V 14.5 15 Z M 23,14 h 2 V 13.5 13 H 23 21 V 12 11 H 17.5 14 V 9.5 8 H 7.5 1 V 10.5 13 H 1.5 2 V 11 9 H 7.5 13 v 1.5 1.5 h 3.5 3.5 v 0.5 0.5 h 0.5 0.5 v 0.5 0.5 z m 80.5,0 H 106 V 13.5 13 h -2.5 -2.5 v 0.5 0.5 z m 10.5,0 h 4 V 13.5 13 h -4 -4 v 0.5 0.5 z m 58.5,0 h 1.5 v -2 -2 h -1.5 -1.5 v 2 2 z m 0,-1 H 172 v -1 -1 h 0.5 0.5 v 1 1 z M 3.5,13 H 4 V 11.5 10 H 3.5 3 v 1.5 1.5 z m 2,0 H 6 V 12.5 12 H 5.5 5 v 0.5 0.5 z m 103,0 H 109 V 12.5 12 h 4 4 V 11.5 11 h -8 -8 v 0.5 0.5 h 3.5 3.5 v 0.5 0.5 z m 48.5,0 h 1 V 12.5 12 h -1 -1 v 0.5 0.5 z m 58.5,0 H 216 V 12.5 12 h -0.5 -0.5 v 0.5 0.5 z m 27.5,0 h 1 V 12.5 12 h -1 -1 v 0.5 0.5 z m 45.5,-1 H 289 V 10.5 9 H 288.5 288 V 10.5 12 Z M 92.5,11 H 93 V 9.5 8 H 91.5 90 v 1 1 H 90.5 91 V 9.5 9 h 0.5 0.5 v 1 1 z m 214,2 H 297 V 11 9 h 0.5 0.5 v 1.5 1.5 h 8.5 8.5 V 10.5 9 h 0.5 0.5 v 2 2 z M 253,12 h -6 v -1 -1 h -1 -1 V 9.5 9 H 238.5 232 V 7 5 h 0.5 0.5 V 6.5 8 h 7 7 V 5 2 h 0.5 0.5 V 6.5 11 h 5 5 V 9.5 8 h 0.5 0.5 v 2 2 z M 71,11 H 69 V 9 7 H 68 67 V 6 5 H 67.5 68 V 5.5 6 h 1 1 v 2 2 h 1 1 V 8 6 H 72.5 73 V 8.5 11 Z m 68.5,0 H 135 V 8.5 6 H 134.5 134 V 5.5 5 h 0.5 0.5 V 4.5 4 h 0.5 0.5 v 3 3 h 3.5 3.5 V 7.5 5 h 0.5 0.5 v 3 3 z m 43.5,0 h -3 V 8.5 6 h 0.5 0.5 v 2 2 h 2 2 V 8 6 h 0.5 0.5 V 8.5 11 Z m 15.5,0 H 188 V 8 5 h 0.5 0.5 V 7.5 10 h 9.5 9.5 V 9 8 h 0.5 0.5 V 9.5 11 Z m 108,0 H 299 V 10 9 h 0.5 0.5 V 9.5 10 h 6.5 6.5 V 9.5 9 h 0.5 0.5 v 1 1 z M 125,10 h -2 V 8 6 h 0.5 0.5 V 7.5 9 h 1 1 V 7.5 6 h 0.5 0.5 v 2 2 z m 23.5,0 H 147 V 7.5 5 h 0.5 0.5 V 3 1 h 0.5 0.5 v 4 4 h 0.5 0.5 V 9.5 10 Z m 65,0 H 212 V 9.5 9 h 1 1 V 8 7 h 0.5 0.5 V 8.5 10 Z m 39.5,0 h -4 V 6.5 3 h 0.5 0.5 v 3 3 h 3 3 V 8.5 8 h 0.5 0.5 v 1 1 z M 27,9 H 25 V 8 7 H 21.5 18 V 6.5 6 H 21.5 25 V 6.5 7 h 2 2 V 8 9 Z M 49.5,9 H 43 V 6 3 H 43.5 44 V 5.5 8 H 49.5 55 V 6.5 5 h 0.5 0.5 v 2 2 z m 90,0 H 137 V 7 5 h 0.5 0.5 V 6.5 8 h 1.5 1.5 V 6.5 5 h 0.5 0.5 V 7 9 Z M 183,9 h -1 V 8 7 h 1 1 v 1 1 z m 15.5,0 H 190 V 7 5 h 0.5 0.5 V 6.5 8 h 8 8 V 8.5 9 Z M 269,9 h -3 V 7 5 h 0.5 0.5 V 4.5 4 h 2 2 V 4.5 5 h 0.5 0.5 v 2 2 z m 0,-1 h 2 V 6.5 5 h -2 -2 V 6.5 8 Z m 0,-1 h -1 V 6.5 6 h 1 1 V 6.5 7 Z m 37.5,2 H 302 V 8.5 8 h 4.5 4.5 V 8.5 9 Z M 78,8 H 76 V 7 6 H 76.5 77 V 6.5 7 H 78.5 80 V 7.5 8 Z M 252.5,8 H 251 V 6.5 5 h 0.5 0.5 v 1 1 h 1 1 V 7.5 8 Z M 296,8 h -2 V 7.5 7 h 2 2 V 7.5 8 Z m 22.5,0 H 317 V 6 4 h 0.5 0.5 V 5.5 7 h 1 1 V 7.5 8 Z M 131.5,7 H 130 V 6.5 6 h 1 1 V 5 4 h 0.5 0.5 V 5.5 7 Z m 33,0 H 164 V 5.5 4 h 0.5 0.5 V 5.5 7 Z M 198,7 h -6 V 6 5 h 0.5 0.5 V 5.5 6 h 5.5 5.5 V 6.5 7 Z m 26.5,0 H 224 V 6 5 h 0.5 0.5 V 6 7 Z M 240,7 h -6 V 6 5 h 0.5 0.5 V 5.5 6 h 5 5 V 5.5 5 h 0.5 0.5 V 6 7 Z M 8.5,6 H 1 V 5.5 5 H 8.5 16 V 5.5 6 Z M 29,6 H 27 V 5.5 5 h 2 2 V 5.5 6 Z M 45.5,6 H 45 V 4.5 3 H 45.5 46 V 4.5 6 Z m 8,0 H 53 V 5.5 5 H 53.5 54 V 5.5 6 Z m 27,0 H 79 V 5.5 5 H 80.5 82 V 5.5 6 Z m 94,0 H 174 V 5.5 5 h 0.5 0.5 V 5.5 6 Z m 124,0 H 297 V 5.5 5 h 1.5 1.5 V 5.5 6 Z M 21.5,5 H 20 V 4.5 4 H 21.5 23 V 4.5 5 Z M 70,5 H 69 V 4.5 4 h 1 1 V 4.5 5 Z M 88.5,5 H 88 V 4 3 H 87 86 V 2.5 2 H 84.5 83 V 1.5 1 h 4 4 V 1.5 2 H 90 89 V 3.5 5 Z m 64,0 H 152 V 2.5 0 h 0.5 0.5 V 2.5 5 Z m 10,0 H 162 V 4.5 4 h 0.5 0.5 V 4.5 5 Z m 36,0 H 195 V 4.5 4 h 3.5 3.5 V 4.5 5 Z M 240,5 h -3 V 4.5 4 h 3 3 V 4.5 5 Z M 10.5,4 H 3 V 3.5 3 H 10.5 18 V 3.5 4 Z M 31,4 H 29 V 3.5 3 h 2 2 V 3.5 4 Z M 47.5,4 H 47 V 3.5 3 H 47.5 48 V 3.5 4 Z m 35,0 H 81 V 3.5 3 H 82.5 84 V 3.5 4 Z m 26,0 H 108 V 2 0 h 0.5 0.5 v 2 2 z m 74,0 H 182 V 3.5 3 h 0.5 0.5 V 3.5 4 Z M 220,4 h -5 V 3.5 3 H 213.5 212 V 2.5 2 h 1.5 1.5 V 2.5 3 h 5 5 V 3.5 4 Z m 86.5,0 H 306 V 3.5 3 h 0.5 0.5 V 3.5 4 Z M 154.5,3 H 154 V 1.5 0 h 0.5 0.5 V 1.5 3 Z m 44,0 H 197 V 2.5 2 h 1.5 1.5 V 2.5 3 Z M 240,3 h -1 V 2.5 2 h 1 1 V 2.5 3 Z m 29,0 h -4 V 2.5 2 h 4 4 V 2.5 3 Z m 17,0 h -5 V 2.5 2 h 5 5 V 2.5 3 Z M 15,2 H 12 V 1.5 1 h 3 3 V 1.5 2 Z m 4.5,0 H 19 V 1.5 1 H 19.5 20 V 1.5 2 Z m 91,0 H 110 V 1 0 h 0.5 0.5 V 1 2 Z M 222,2 h -5 V 1.5 1 H 213.5 210 V 0.5 0 h 3.5 3.5 V 0.5 1 h 5 5 V 1.5 2 Z m 84.5,0 H 304 V 1.5 1 h 2.5 2.5 V 1.5 2 Z M 156.5,1 H 156 V 0.5 0 h 0.5 0.5 V 0.5 1 Z M 269,1 h -6 V 0.5 0 h 6 6 V 0.5 1 Z m 14.5,0 H 279 V 0.5 0 h 4.5 4.5 V 0.5 1 Z"
     id="path507" /></svg>
