<?xml version="1.0" encoding="UTF-8" standalone="no"?>
<svg viewBox="0 0 200 20" version="1.1" id="svg112"
   xmlns="http://www.w3.org/2000/svg"
   xmlns:svg="http://www.w3.org/2000/svg">
   <defs />
   <g class="divider-top" id="g4">
      <rect width="200" height="20" x="0" y="0" />
   </g>
   <g class="divider-bottom" fill="magenta" id="g54">
      <path d="m 0,20 v -5 h 1 v -2 h 1 v 2 H 3.9999999 V 14 H 2 V 13 H 7.9999998 V 12 H 0 V 11 H 10 V 10 H 0 V 9.0000001 H 11 V 11 h 1 V 7.9999998 H 0 V 7 h 13 v 3 h 1 V 6.0000001 H 0 V 4.9999998 h 15 v 4.0000003 h 1 V 19 h 1 V 9.0000001 h 1 V 18 h 1 V 7.9999998 h 1 V 18 h 1 V 7 h 1 v 10 h 1 V 7.9999998 h 1 V 16 h 1 v -6 h 4 V 9.0000001 h 3 V 1 h 1 v 9 h 8.000002 v 7 h 0.999999 V 9.0000001 H 34 V 1 h 1 v 6.9999998 h 7.999999 V 7 h 6 V 7.9999998 H 44.000002 V 11 h 0.999999 V 9.0000001 h 6 V 10 h -5.000002 v 1 h 6 V 9.0000001 h 9.999999 V 12 h 1.000003 v 1 h 9 V 12 H 73 V 3.9999999 h 0.999998 V 14 h 1.000003 V 4.9999998 H 76 V 14 h 11.000001 v 1 H 88 V 13 H 76.999998 V 4.9999998 h 1.000003 V 12 h 10.999998 v 4 h 1.000002 V 11 H 79 V 6.0000001 h 0.999998 V 10 H 91 v 7 h 0.999999 v -6 h 6 v 5 h 1.000002 v -6 h -3 V 3 H 97 v 6.0000001 h 3 V 15 h 1 V 7.9999998 h 1 V 14 h 1 v 1 h 5 v -1 h -5 V 6.0000001 h 1 V 13 h 4 V 3 h 1 v 10 h 1 V 3.9999999 h 1 V 14 h 1 V 3.9999999 h 1 V 15 h 1 V 4.9999998 h 1 V 15 h 1 V 6.0000001 h 9 V 7 h -8 v 7 h 8 V 7.9999998 h 1 V 16 h 1 V 7 h 1 v 10 h 1 v -2 h 23 v -1 h -23 v -2 h 1 V 2 h 1 v 10 h 1 V 3 h 1 v 7 h 15 V 3.9999999 h 1 V 12 h 1 V 3.9999999 h 1 V 13 h 1 V 3 h 1 v 10 h 1 V 2 h 1 v 10 h 1 V 2 h 1 v 9 h 1 V 1 h 6 v 1 h 13 V 0 h 1 V 3 H 163 V 2 h -4 v 9 h 1 V 3 h 2 v 1.9999998 h -1 V 10 h 1 V 7 h 1 v 3 h 1 v 7 h 1 v 2 h 1 v -2 h 4 v -1 h -5 V 9.0000001 h 3 V 12 h 1 v -2 h 2 v 2 h 1 V 9.0000001 h 2 V 15 h 1 V 9.0000001 h 1 V 7 h 1 v 3 h 1 V 4.9999998 h 1 V 11 h 1 V 3.9999999 h 6 V 1 h 1 v 2.9999999 h 10 V 12 h 3 v 1 h -4 V 4.9999998 h -6 V 11 h 1 V 7 h 1 v 3 h 1 v 2 h 1 V 7 h 1 v 7 h -4 v 1 h 7 v 1 h 1 v -2 h 1 v 6 z" />
      <path d="M 0,3 H 17 V 3.9999999 H 0 Z" />
      <path d="m 24,4.9999998 h 1 v 1.0000003 h -1 z" />
      <path d="m 28,3 v 1.9999998 h 1 V 3 Z" />
      <path d="m 30,2 v 5 h -3 v 0.9999998 h 4 V 2 Z" />
      <path d="m 36,1 v 6 h 6.000001 V 6.0000001 h 5.000001 V 4.9999998 h -6 V 6.0000001 H 37 V 1 Z" />
      <path d="m 39,3 v 0.9999999 h 6.000001 V 3 Z" />
      <path d="M 48.999999,6.0000001 H 64.999998 V 10 H 70 v 1 H 64 V 7 H 51.000001 v 0.9999998 h 12 V 12 h 9 V 2 H 55.999998 v 1 h 15 v 7 H 70 V 3.9999999 H 54.000001 v 0.9999999 h -5.000002 z" />
      <path d="m 81.000001,6.0000001 v 3 H 94.999999 V 3.9999999 H 94 V 7.9999998 H 82 V 6.0000001 Z" />
      <path d="m 91.999999,3.9999999 v 2.0000002 h 1.000002 V 3.9999999 Z" />
      <path d="m 97.999999,2 v 5.9999998 h 1.000002 V 2 Z" />
      <path d="m 100,2 v 4.0000001 h 1 V 2 Z" />
      <path d="m 102,1 v 2.9999999 h 1 V 1 Z" />
      <path d="m 104,1 v 1 h 1 V 1 Z" />
      <path d="m 106,2 v 1.9999999 h -1 V 12 h 2 V 2 Z" />
      <path d="M 118,13 V 7.9999998 h 6 V 13 Z" />
      <path d="m 134,3.9999999 v 5.0000002 h 13 V 4.9999998 h -1 v 3 H 135 V 3.9999999 Z" />
      <path d="M 136,3.9999999 V 7 h 9 V 6.0000001 h -8 V 3.9999999 Z" />
      <path d="m 139,3.9999999 v 0.9999999 h 3 V 3.9999999 Z" />
      <path d="m 166,1 h 9 V 0 h -9 z" />
      <path d="m 179,0 v 3 h 1 V 0 Z" />
      <path d="m 184,0 v 3 h 1 V 0 Z" />
      <path d="m 188,2 v 1 h 11 V 2 Z" />
      <path d="M 198,3.9999999 V 11 h 2 v -1 h -1 V 3.9999999 Z" />
   </g>
   <g class="divider-top" id="g102">
      <path d="m 26,16 v -5 h 4 V 9.9999999 h 1 V 13 h -1 v -1 h -3 v 4 z" />
      <path d="m 32,11 v 2 h 1 v -1 h 6.000001 v 6 H 40 v -7 z" />
      <path d="m 34,13 v 1 h 3 v 2 h -3 v 1 h 4.000002 v -4 z" />
      <path d="m 48.000001,12 v 1 h 6 v -1 z" />
      <path d="m 55.999999,12 h 3 v 2 H 58 v -1 h -2.000001 z" />
      <path d="M 55.999999,14 H 55 v 1 h 0.999999 v 1 h 3 v -1 h -3 z" />
      <path d="m 60.000001,13 v -2 h -6 V 9.9999999 H 61 V 13 Z" />
      <path d="m 66.000001,9.0000001 h 3 V 4.9999998 h -3 z" />
      <path d="M 85.999999,16 H 85 v 1 h 0.999999 z" />
      <path d="m 93.000002,13 v 3 h 0.999999 v -3 z" />
      <path d="m 96.000002,13 v 3 h 0.999999 v -3 z" />
      <path d="M 119,9.0000001 V 12 h 4 V 9.0000001 Z" />
      <path d="m 101,16 h 5 v 1 h -5 z" />
      <path d="m 101,18 v 1 h 3 v -1 z" />
      <path d="m 154,16 h -23 v 1 h 23 z" />
      <path d="m 167,9.9999999 h -1 V 15 h 1 z" />
      <path d="m 173,14 h -1 v 1 h 1 z" />
      <path d="m 176,12 v 4 h 1 v -4 z" />
      <path d="m 178,14 v 3 h 1 v -3 z" />
      <path d="m 180,16 v 1 h 1 v -1 z" />
      <path d="M 181,11 V 4.9999998 h 8 V 12 h -1 V 6 h -6 v 5 z" />
      <path d="M 183,12 V 6.9999999 h 4 V 12 Z" />
      <path d="m 181,13 v 1 h 8 v -1 z" />
   </g>
   <g class="divider-bottom" id="g110">
      <path d="m 67,6.0000001 v 1.9999998 h 0.999999 V 6.0000001 Z" />
      <path d="m 120,10 h 2 v 1 h -2 z" />
      <path d="m 186,7.9999999 h -2 V 11 h 2 z" />
   </g>
</svg>
